<svg id="Camada_1" data-name="Camada 1" xmlns="http://www.w3.org/2000/svg" xmlns:xlink="http://www.w3.org/1999/xlink" viewBox="0 0 100 100"><defs><style>.cls-1{fill:url(#Gradiente_sem_nome_3);}.cls-2{fill:url(#Gradiente_sem_nome_2);}</style><linearGradient id="Gradiente_sem_nome_3" x1="115.76295" y1="-989.09885" x2="115.76295" y2="-1060.30764" gradientTransform="matrix(1, 0, 0, -1, -66.4427, -974.70325)" gradientUnits="userSpaceOnUse"><stop offset="0" stop-color="#1a2634"/><stop offset="0.5" stop-color="#203e5f"/><stop offset="0.66272" stop-color="#203c5c"/><stop offset="0.80444" stop-color="#1e3651"/><stop offset="0.9379" stop-color="#1c2c3f"/><stop offset="1" stop-color="#1a2634"/></linearGradient><linearGradient id="Gradiente_sem_nome_2" x1="69.81812" y1="-1024.70322" x2="163.06728" y2="-1024.70322" gradientTransform="matrix(1, 0, 0, -1, -66.4427, -974.70325)" gradientUnits="userSpaceOnUse"><stop offset="0" stop-color="#203e5f"/><stop offset="0.99441" stop-color="#0071bc"/></linearGradient></defs><g id="symbol"><path class="cls-1" d="M15.1917,58.38324A32.42051,32.42051,0,0,1,14.39564,50,35.64464,35.64464,0,0,1,50,14.3956c7.83172,0,19.189,2.87053,26.015,12.16638a56.2821,56.2821,0,0,1-7.62669-.86392A30.20047,30.20047,0,0,0,50,19.52705,30.50749,30.50749,0,0,0,19.52707,50l.085,1.90512A25.11761,25.11761,0,0,0,15.1917,58.38324ZM84.245,60.7087A28.7402,28.7402,0,0,1,77.86734,62.265,30.88936,30.88936,0,0,1,50,80.473,29.90366,29.90366,0,0,1,23.63921,65.29806a15.36966,15.36966,0,0,0-4.54109,2.49881A35.17606,35.17606,0,0,0,50,85.6044c13.97442,0,27.51211-8.1818,34.245-24.8957Z"/><path class="cls-2" d="M96.12623,39.09958S104.20385,66.636,55.31832,59.11776C20.71585,53.70321,3.37542,78.67823,3.37542,78.67823s8.01612-20.27695,30.948-26.87036a48.94258,48.94258,0,0,1,19.8843-1.42507C96.2175,55.89557,96.12623,39.09958,96.12623,39.09958ZM60.143,37.86715a39.35063,39.35063,0,0,0-16.026.2831,39.80522,39.80522,0,0,0-26.01048,20.233s15.00342-19.30056,42.54989-13.455c38.92266,8.15295,33.62987-14.30472,33.62987-14.30472s-.654,13.48877-34.14325,7.2436Zm2.963-10.421a34.37205,34.37205,0,0,0-13.9997.15222,34.769,34.769,0,0,0-22.839,17.51834s13.21931-16.76915,37.24526-11.5c33.94884,7.35215,29.45908-12.295,29.45908-12.295S92.3203,33.0997,63.106,27.44617Z"/></g></svg>