<?xml version="1.0" encoding="utf-8"?>
<!-- Generator: Adobe Illustrator 25.3.1, SVG Export Plug-In . SVG Version: 6.00 Build 0)  -->
<svg version="1.1" id="Camada_1" xmlns="http://www.w3.org/2000/svg" xmlns:xlink="http://www.w3.org/1999/xlink" x="0px" y="0px"
	 viewBox="0 0 1000 1000" style="enable-background:new 0 0 1000 1000;" xml:space="preserve">
<path id="TEL" d="M423.1,576.9c-86-86-105.4-172-109.8-206.4c-1.2-9.5,2.1-19.1,8.9-25.8l69.6-69.6c10.2-10.2,12.1-26.2,4.4-38.4
	L285.4,64.6c-8.5-13.6-25.9-18.5-40.2-11.3l-178,83.8c-11.6,5.7-18.4,18-17.1,30.9c9.4,88.5,48,306.1,261.9,520
	s431.5,252.5,520.1,261.8c12.8,1.3,25.2-5.5,30.9-17.1l83.8-177.9c7.1-14.3,2.3-31.7-11.3-40.2l-172-110.8
	c-12.3-7.7-28.2-5.9-38.4,4.3l-69.6,69.6c-6.8,6.8-16.3,10.1-25.8,8.9C595.1,682.4,509.1,662.9,423.1,576.9z"/>
<path id="EMAIL_2" d="M870.9,166.9H129.1c-43.7,0.1-79,37.3-79.1,83.3v499.7c0.1,46,35.4,83.2,79.1,83.3h741.8
	c43.7-0.1,79-37.3,79.1-83.3V250.1C949.9,204.1,914.6,167,870.9,166.9z M858.8,222.3c-25.6,27.1-326,344.3-338.3,357.4
	c-10.3,10.8-30.6,10.8-40.9,0L141.2,222.3H858.8z M102.7,739.6V260.4L329.6,500L102.7,739.6z M141.2,777.7l225.6-238.3l75.4,79.6
	c30.9,32.6,84.7,32.6,115.6,0l75.4-79.6l225.6,238.3H141.2z M897.3,739.6L670.4,500l226.9-239.6L897.3,739.6L897.3,739.6z"/>
<path id="ARROW" d="M464.9,249.8L64.5,650.3C55.1,659.6,50,671.9,50,685c0,13.2,5.1,25.6,14.5,34.8L94,749.6
	c19.2,19.2,50.5,19.2,69.7,0l336.2-336.4L836.6,750c9.3,9.3,21.6,14.5,34.8,14.5s25.6-5.1,34.8-14.5l29.5-29.5
	c9.3-9.3,14.5-21.8,14.5-34.9c0-13.2-5.1-25.6-14.5-34.8l-400.8-401c-9.3-9.1-21.8-14.3-34.9-14.3
	C486.6,235.6,474.2,240.7,464.9,249.8z"/>
<path id="MENU" d="M119.2,292.3h761.5c38.2,0,69.2-31,69.2-69.2s-31-69.2-69.2-69.2H119.2c-38.2,0-69.2,31-69.2,69.2
	S81,292.3,119.2,292.3z M880.8,430.8H119.2C81,430.8,50,461.8,50,500s31,69.2,69.2,69.2h761.5c38.2,0,69.2-31,69.2-69.2
	S919,430.8,880.8,430.8z M880.8,707.7H119.2c-38.2,0-69.2,31-69.2,69.2c0,38.2,31,69.2,69.2,69.2h761.5c38.2,0,69.2-31,69.2-69.2
	C950,738.7,919,707.7,880.8,707.7z"/>
<path id="CLOSE" d="M648.5,500l278.4-278.4c30.7-30.7,30.8-80.5,0.1-111.3c0,0,0,0-0.1-0.1l-37.1-37.1
	c-30.7-30.8-80.6-30.8-111.3-0.1c0,0,0,0-0.1,0.1L500,351.5L221.6,73.1c-30.7-30.7-80.6-30.8-111.3,0c0,0,0,0,0,0l-37.2,37.1
	c-30.8,30.7-30.8,80.6,0,111.3c0,0,0,0,0,0L351.5,500L73.1,778.4c-30.8,30.7-30.8,80.6,0,111.3c0,0,0,0,0,0l37.1,37.1
	c30.7,30.8,80.6,30.8,111.3,0c0,0,0,0,0,0L500,648.5l278.4,278.4c30.7,30.8,80.6,30.8,111.3,0c0,0,0,0,0,0l37.1-37.1
	c30.8-30.7,30.8-80.5,0.2-111.2c0,0-0.1-0.1-0.1-0.1L648.5,500z"/>
<path id="FACEBOOK" d="M950,500c0-248.6-201.4-450-450-450S50,251.4,50,500s201.4,450,450,450c2.6,0,5.3,0,7.9-0.2V599.7h-96.7V487
	h96.7v-83c0-96.2,58.7-148.5,144.5-148.5c41.1,0,76.5,3,86.7,4.4v100.5H680c-46.6,0-55.7,22.1-55.7,54.7v71.7h111.6l-14.6,112.7h-97
	v333.1C812.4,878.6,950,705.5,950,500z"/>
<path id="INSTAGRAM" d="M500,405.5c52.2,0,94.5,42.3,94.5,94.5s-42.3,94.5-94.5,94.5s-94.5-42.3-94.5-94.5S447.8,405.5,500,405.5
	L500,405.5z M500,50C251.5,50,50,251.5,50,500s201.5,450,450,450s450-201.5,450-450S748.5,50,500,50z M778,614.4
	c-2.2,42.8-14.2,85-45.4,115.8c-31.5,31.1-73.9,42.7-117.1,44.9H384.4c-43.2-2.1-85.6-13.7-117.1-44.9
	c-31.2-30.8-43.2-73-45.4-115.8V385.6c2.2-42.8,14.2-85,45.4-115.8c31.5-31.1,73.9-42.7,117.1-44.9h231.2
	c43.2,2.1,85.6,13.7,117.1,44.9c31.2,30.8,43.2,73,45.4,115.8L778,614.4z M612.7,277c-56.3-1.5-169-1.5-225.3,0
	c-29.3,0.8-62.5,8.1-83.4,30.4c-21.7,23.2-29.9,51.2-30.7,82.5c-1.5,55,0,220.1,0,220.1c1,31.3,9,59.3,30.7,82.5
	c20.9,22.3,54.1,29.6,83.4,30.4c56.3,1.5,169,1.5,225.3,0c29.3-0.8,62.5-8.1,83.4-30.4c21.7-23.2,29.9-51.2,30.7-82.5V390
	c-0.8-31.3-9-59.3-30.7-82.5C675.2,285.1,642,277.9,612.7,277L612.7,277z M500,646.5c-80.9,0-146.5-65.6-146.5-146.5
	S419.1,353.5,500,353.5S646.5,419.1,646.5,500l0,0l0,0C646.5,580.9,580.9,646.5,500,646.5z M647.1,383.8
	c-16.2,0-29.3-13.1-29.3-29.3c0-16.2,13.1-29.3,29.3-29.3s29.3,13.1,29.3,29.3C676.4,370.6,663.3,383.8,647.1,383.8L647.1,383.8z"/>
<path id="LOCATION" d="M457.2,51.1C316.4,65.7,193,142.3,118,261.8C11.8,430.9,31.7,654.4,165.9,801.6
	c74.4,81.5,167.4,130.3,279,146.2c20.8,3,89.9,2.8,111.8,0c101.9-14.1,193.1-59.4,262.4-130.2c22.9-23.2,27.6-28.7,42.8-48.8
	c45.1-60.1,74.4-133.3,85.9-213.3c3-20.8,3-90.2,0-111c-7.6-53.4-21.5-98.8-43.5-143.4c-23.6-47.2-47.5-80.8-85-118.7
	c-69.5-70.3-156.5-114.2-256.5-129C541.2,50.2,478.7,48.8,457.2,51.1z M542.1,211.1c101,19.6,173.7,102.5,180.9,206.3
	c4.6,65-45.8,161.7-154.7,296.8c-22.4,27.7-66.4,78.4-67.9,78.4s-45.6-50.7-67.9-78.4c-58.5-72.5-98.5-131.7-124.9-185
	c-29.9-60.6-35.9-94.4-25.5-144.4c18.1-87.5,86.8-155.7,175.1-173.5C479.6,206.7,519.2,206.7,542.1,211.1L542.1,211.1z M479.4,344.4
	c-44.5,12-72.2,58.3-60.9,102c11.8,45.1,57.9,73.1,102.1,61.6c45.1-11.8,73-57.9,61.6-102.2c-6-22.4-23.9-45.4-43.3-55
	C520.6,341.9,498.1,339.3,479.4,344.4z"/>
<path id="WHATSAPP" d="M500,50C251.5,50,50,251.5,50,500s201.5,450,450,450s450-201.5,450-450S748.5,50,500,50z M509.5,762h-0.1
	c-45,0-89.2-11.3-128.7-32.8l-142.8,37.4l38.2-139.5c-23.6-40.9-36-87.4-36-134.6C240.2,344,361,223.3,509.4,223.3
	c148.7,0,269.3,120.6,269.3,269.3v0.1C778.8,641.2,658,762,509.5,762z M509.6,268.8c-123.5,0-223.9,100.4-224,223.8
	c-0.1,42.1,11.8,83.4,34.2,119.1l5.3,8.5l-22.6,82.6l84.7-22.2l8.2,4.8c34.5,20.4,73.8,31.2,113.9,31.2h0.1
	c123.4,0,223.8-100.4,223.9-223.8C733.4,369.1,633.3,268.8,509.6,268.8L509.6,268.8z M641.3,588.8c-5.6,15.7-32.5,30.1-45.4,32
	c-11.6,1.7-26.3,2.5-42.4-2.7c-13-4-25.8-8.8-38.4-14.2c-67.5-29.1-111.6-97.1-115-101.6s-27.5-36.5-27.5-69.6s17.4-49.4,23.6-56.1
	c4.5-5.2,11.1-8.2,17.9-8.4c4.5,0,9,0,12.9,0.2c4.1,0.2,9.7-1.6,15.1,11.5c5.6,13.5,19.1,46.6,20.8,49.9c1.7,3.4,2.8,7.3,0.6,11.8
	c-2.2,4.5-9.7,14.2-16.8,23c-3,3.7-6.9,7-3,13.7s17.4,28.8,37.4,46.6c25.7,22.9,47.4,30,54.1,33.4c6.7,3.4,10.6,2.8,14.6-1.7
	c3.9-4.5,16.8-19.6,21.3-26.4s9-5.6,15.1-3.4c6.2,2.2,39.3,18.5,46,21.9s11.2,5.1,12.9,7.9C646.9,559.6,646.9,573.1,641.3,588.8z"/>
<path id="EMAIL" d="M514.5,547.3l229-181.8V648c0,5.6-4.5,10.1-10.1,10.1H266.7c-5.6,0-10.1-4.5-10.1-10.1V365.5l229,181.8
	C494,554,506,554,514.5,547.3z M950,500c0,248.1-201.9,450-450,450S50,748.1,50,500S251.9,50,500,50S950,251.9,950,500z M790,352
	c-0.1-31.3-25.4-56.6-56.7-56.6H266.6c-31.2,0-56.6,25.3-56.6,56.6v296c0,31.2,25.3,56.6,56.6,56.6h466.8
	c31.2,0,56.6-25.3,56.6-56.6V352z M698.3,341.9H301.7L500,499.4L698.3,341.9z"/>
</svg>
