<?xml version="1.0" encoding="utf-8"?>
<!-- Generator: Adobe Illustrator 25.3.1, SVG Export Plug-In . SVG Version: 6.00 Build 0)  -->
<svg version="1.1" id="Camada_1" xmlns="http://www.w3.org/2000/svg" xmlns:xlink="http://www.w3.org/1999/xlink" x="0px" y="0px"
	 viewBox="0 0 300 300" style="enable-background:new 0 0 300 300;" xml:space="preserve">
<path id="TEL" d="M126.1,173.9c-26.8-26.8-32.8-53.5-34.2-64.2c-0.4-3,0.7-5.9,2.8-8L116.3,80c3.2-3.2,3.8-8.2,1.4-11.9L83.2,14.6
	c-2.6-4.2-8.1-5.8-12.5-3.5l-55.3,26c-3.6,1.8-5.7,5.6-5.3,9.6C13,74.3,25,142,91.5,208.5s134.2,78.5,161.8,81.4
	c4,0.4,7.8-1.7,9.6-5.3l26.1-55.3c2.2-4.4,0.7-9.9-3.5-12.5L232,182.3c-3.8-2.4-8.8-1.8-11.9,1.3l-21.7,21.7c-2.1,2.1-5.1,3.1-8,2.8
	C179.6,206.7,152.8,200.7,126.1,173.9z"/>
<path id="EMAIL_2" d="M265.4,46.4H34.6C21,46.4,10,58,10,72.3v155.5c0,14.3,11,25.9,24.6,25.9h230.8c13.6,0,24.6-11.6,24.6-25.9
	V72.2C290,57.9,279,46.4,265.4,46.4z M261.6,63.6c-8,8.4-101.4,107.1-105.2,111.2c-3.2,3.4-9.5,3.4-12.7,0L38.4,63.6H261.6z
	 M26.4,224.5V75.4L97,150L26.4,224.5z M38.4,236.4l70.2-74.1L132,187c9.6,10.1,26.4,10.1,36,0l23.5-24.8l70.2,74.1H38.4V236.4z
	 M273.6,224.5L203,150l70.6-74.5V224.5L273.6,224.5z"/>
<path id="ARROW" d="M139.1,72.2L14.5,196.7c-2.9,2.9-4.5,6.7-4.5,10.8s1.6,8,4.5,10.8l9.2,9.3c6,6,15.7,6,21.7,0L149.9,123
	l104.7,104.8c2.9,2.9,6.7,4.5,10.8,4.5s8-1.6,10.8-4.5l9.2-9.2c2.9-2.9,4.5-6.8,4.5-10.9c0-4.1-1.6-8-4.5-10.8L160.8,72.2
	c-2.9-2.8-6.8-4.4-10.9-4.4C145.8,67.8,141.9,69.3,139.1,72.2z"/>
<path id="ARROW_2" d="M133.4,16.9L16.9,133.4c-9.2,9.2-9.2,24.1,0,33.3s24.1,9.2,33.3,0L150,66.8l99.8,99.8c9.2,9.2,24.1,9.2,33.3,0
	c9.2-9.2,9.2-24.1,0-33.3L166.6,16.9C157.5,7.7,142.6,7.7,133.4,16.9z M126.3,156.9l-97.5,92.5c-9.8,9.3-9.8,24.3,0,33.6
	c9.8,9.3,25.6,9.3,35.4,0l79.7-75.7l79.7,75.7c9.8,9.3,25.7,9.3,35.4,0c9.8-9.3,9.8-24.3,0-33.6l-97.5-92.5
	C152,147.6,136.1,147.6,126.3,156.9L126.3,156.9z"/>
<path id="MENU" d="M31.5,85.4h236.9c11.9,0,21.5-9.6,21.5-21.5s-9.6-21.5-21.5-21.5H31.5C19.6,42.3,10,52,10,63.8
	S19.6,85.4,31.5,85.4z M268.5,128.5h-237c-11.9,0-21.5,9.6-21.5,21.5s9.6,21.5,21.5,21.5h236.9c11.9,0,21.5-9.6,21.5-21.5
	C290,138.1,280.4,128.5,268.5,128.5z M268.5,214.6h-237c-11.9,0-21.5,9.6-21.5,21.5s9.6,21.5,21.5,21.5h236.9
	c11.9,0,21.5-9.6,21.5-21.5C290,224.3,280.4,214.6,268.5,214.6z"/>
<path id="CLOSE" d="M196.2,150l86.6-86.6c9.6-9.6,9.6-25,0-34.6l0,0l-11.5-11.5c-9.6-9.6-25.1-9.6-34.6,0l0,0L150,103.8L63.4,17.2
	c-9.6-9.6-25.1-9.6-34.6,0l0,0L17.2,28.7c-9.6,9.6-9.6,25.1,0,34.6l0,0l86.6,86.6l-86.6,86.6c-9.6,9.6-9.6,25.1,0,34.6l0,0
	l11.5,11.5c9.6,9.6,25.1,9.6,34.6,0l0,0l86.6-86.6l86.6,86.6c9.6,9.6,25.1,9.6,34.6,0l0,0l11.5-11.5c9.6-9.6,9.6-25,0.1-34.6l0,0
	L196.2,150z"/>
<path id="AT_SIGN" d="M150,10C72.8,10,10,72.8,10,150s62.8,140,140,140c20.5,0,41.5-5.2,62.2-15.5l-12.4-25.1
	c-16.9,8.3-33.6,12.6-49.8,12.6c-61.8,0-112-50.2-112-112S88.2,38,150,38s112,50.2,112,112v14c0,9.7-4.4,28-21,28
	c-19.5,0-20.9-25.5-21-28V94h-28v0.3C179.9,85,165.2,80,150,80c-38.6,0-70,31.4-70,70s31.4,70,70,70c20.3,0,38.5-8.8,51.3-22.7
	C208.6,209.8,221,220,241,220c31.8,0,49-28.9,49-56v-14C290,72.8,227.2,10,150,10z M150,192c-23.2,0-42-18.8-42-42s18.8-42,42-42
	s42,18.8,42,42S173.2,192,150,192z"/>
<path id="MESSAGE" d="M278.2,26.4H21.8c-6.5,0-11.8,5.3-11.8,11.8v180c0,6.5,5.3,11.8,11.8,11.8H164l54.5,40.7
	c7.4,5.5,13.4,2.5,13.4-6.7v-34h46.3c6.5,0,11.8-5.3,11.8-11.8v-180C290,31.7,284.7,26.4,278.2,26.4z M85.4,145.2
	c-10.1,0-18.3-8.2-18.3-18.3s8.2-18.3,18.3-18.3s18.3,8.2,18.3,18.3C103.7,137,95.5,145.2,85.4,145.2z M150,145.2
	c-10.1,0-18.3-8.2-18.3-18.3s8.2-18.3,18.3-18.3s18.3,8.2,18.3,18.3S160.1,145.2,150,145.2z M214.6,145.2
	c-10.1,0-18.3-8.2-18.3-18.3s8.2-18.3,18.3-18.3s18.3,8.2,18.3,18.3C232.9,137,224.7,145.2,214.6,145.2z"/>
<path id="USER" d="M150,62.1c-30.6,0-55.3,24.8-55.3,55.4s24.8,55.3,55.3,55.3s55.3-24.8,55.3-55.3C205.3,86.9,180.6,62.1,150,62.1z
	 M150,62.1c-30.6,0-55.3,24.8-55.3,55.4s24.8,55.3,55.3,55.3s55.3-24.8,55.3-55.3C205.3,86.9,180.6,62.1,150,62.1z M150,62.1
	c-30.6,0-55.3,24.8-55.3,55.4s24.8,55.3,55.3,55.3s55.3-24.8,55.3-55.3C205.3,86.9,180.6,62.1,150,62.1z M150,10
	C72.7,10,10,72.7,10,150c0,32.7,11.2,62.7,30,86.6c0.3,0.4,0.6,0.8,0.9,1.2c0.3,0.4,0.7,0.9,1.1,1.3c0.4,0.4,0.7,0.9,1.1,1.3
	c1.6,1.9,3.2,3.7,4.9,5.5c0.3,0.3,0.6,0.7,0.9,1c0.3,0.3,0.6,0.7,0.9,1c0.4,0.4,0.8,0.8,1.2,1.2c0.9,0.9,1.8,1.8,2.7,2.7
	c0.7,0.7,1.4,1.3,2.1,1.9c1.3,1.1,2.5,2.3,3.8,3.4c0.4,0.4,0.9,0.7,1.3,1.1c0.4,0.4,0.9,0.7,1.3,1.1c0.4,0.4,0.9,0.7,1.3,1.1
	c0.6,0.5,1.3,1,1.9,1.5c0.7,0.5,1.4,1.1,2.1,1.6c2.2,1.6,4.4,3.1,6.7,4.6c0.5,0.4,1.1,0.7,1.6,1.1c1,0.6,1.9,1.2,2.9,1.8
	c0.4,0.3,0.9,0.5,1.3,0.8c3.6,2.1,7.4,4.1,11.2,5.8c0.6,0.3,1.1,0.5,1.7,0.8c0.8,0.4,1.6,0.7,2.5,1.1c0.5,0.2,1,0.4,1.5,0.6
	c2.4,1,4.8,1.9,7.3,2.7c0.6,0.2,1.2,0.4,1.7,0.6c0.6,0.2,1.3,0.4,1.9,0.6c0.5,0.2,1.1,0.3,1.7,0.5c1.2,0.4,2.5,0.7,3.7,1.1
	c0.4,0.1,0.9,0.2,1.3,0.4c1,0.3,1.9,0.5,2.9,0.7c0.5,0.1,0.9,0.2,1.4,0.3c0.4,0.1,0.8,0.2,1.1,0.3c0.6,0.1,1.1,0.3,1.7,0.4
	c1,0.2,2.1,0.4,3.1,0.6c0.7,0.1,1.3,0.3,2,0.4c0.4,0.1,0.8,0.1,1.2,0.2c0.8,0.1,1.6,0.3,2.4,0.4c0.5,0.1,1.1,0.1,1.6,0.2
	c0.6,0.1,1.2,0.1,1.7,0.2c1.2,0.1,2.4,0.3,3.5,0.4c1.2,0.1,2.4,0.2,3.6,0.3c0.5,0,1,0.1,1.5,0.1c0.8,0,1.6,0.1,2.4,0.1
	c0.5,0,1,0,1.5,0c1.2,0,2.4,0,3.6,0s2.4,0,3.6,0c0.5,0,1,0,1.5,0c0.8,0,1.6-0.1,2.4-0.1c0.5,0,1-0.1,1.5-0.1
	c1.2-0.1,2.4-0.2,3.6-0.3c1.2-0.1,2.4-0.2,3.5-0.4c0.6-0.1,1.2-0.1,1.7-0.2s1.1-0.1,1.6-0.2c0.8-0.1,1.6-0.2,2.4-0.4
	c0.4-0.1,0.8-0.1,1.2-0.2c0.7-0.1,1.4-0.2,2-0.4c1.1-0.2,2.1-0.4,3.1-0.6c0.6-0.1,1.1-0.2,1.7-0.4c0.4-0.1,0.8-0.2,1.1-0.3
	c0.5-0.1,0.9-0.2,1.4-0.3c1-0.2,1.9-0.5,2.9-0.7c0.4-0.1,0.9-0.2,1.3-0.4c1.2-0.3,2.5-0.7,3.7-1.1c0.5-0.2,1.1-0.3,1.7-0.5
	c0.6-0.2,1.3-0.4,1.9-0.6c0.6-0.2,1.2-0.4,1.7-0.6c2.4-0.8,4.9-1.8,7.3-2.7c0.5-0.2,1-0.4,1.5-0.6c0.8-0.3,1.7-0.7,2.5-1.1
	c0.6-0.3,1.1-0.5,1.7-0.8c3.8-1.8,7.6-3.7,11.2-5.8c0.4-0.3,0.9-0.5,1.3-0.8c1-0.6,2-1.2,2.9-1.8c0.5-0.3,1.1-0.7,1.6-1.1
	c2.3-1.5,4.5-3,6.7-4.6c0.7-0.5,1.4-1.1,2.1-1.6c0.6-0.5,1.3-1,1.9-1.5c0.4-0.3,0.9-0.7,1.3-1.1c0.4-0.3,0.9-0.7,1.3-1.1
	c0.4-0.4,0.9-0.7,1.3-1.1c1.3-1.1,2.6-2.2,3.8-3.4c0.7-0.6,1.4-1.3,2.1-1.9c0.9-0.9,1.8-1.8,2.7-2.7c0.4-0.4,0.8-0.8,1.2-1.2
	c0.3-0.3,0.6-0.6,0.9-1c0.3-0.3,0.6-0.7,0.9-1c1.7-1.8,3.3-3.6,4.9-5.5c0.4-0.4,0.7-0.9,1.1-1.3c0.4-0.4,0.7-0.9,1.1-1.3
	c0.3-0.4,0.6-0.8,0.9-1.2c18.8-23.8,30-53.9,30-86.6C290,72.7,227.3,10,150,10z M245.5,223.4c-25.8-24.2-59.9-37.7-95.5-37.6
	c-36.9,0-70.4,14.3-95.5,37.6c-15.7-20.3-25-45.8-25-73.4c0-66.5,54-120.5,120.5-120.5s120.5,54,120.5,120.5
	C270.5,177.6,261.1,203.1,245.5,223.4z"/>
<path id="FACEBOOK" d="M290,150c0-77.3-62.7-140-140-140S10,72.7,10,150s62.7,140,140,140c0.8,0,1.6,0,2.5-0.1V181h-30.1v-35h30.1
	v-25.8c0-29.9,18.3-46.2,45-46.2c12.8,0,23.8,0.9,27,1.4v31.3H206c-14.5,0-17.3,6.9-17.3,17V146h34.7l-4.5,35.1h-30.2v103.6
	C247.2,267.8,290,213.9,290,150z"/>
<path id="INSTAGRAM" d="M150,120.6c16.2,0,29.4,13.2,29.4,29.4s-13.2,29.4-29.4,29.4s-29.4-13.2-29.4-29.4S133.8,120.6,150,120.6
	L150,120.6z M150,10C72.7,10,10,72.7,10,150s62.7,140,140,140s140-62.7,140-140S227.3,10,150,10z M236.5,185.6
	c-0.7,13.3-4.4,26.4-14.1,36c-9.8,9.7-23,13.3-36.4,14h-72c-13.4-0.7-26.6-4.3-36.4-14c-9.7-9.6-13.4-22.7-14.1-36v-71.2
	c0.7-13.3,4.4-26.4,14.1-36c9.8-9.7,23-13.3,36.4-14h72c13.4,0.7,26.6,4.3,36.4,14c9.7,9.6,13.4,22.7,14.1,36V185.6z M185.1,80.6
	c-17.5-0.5-52.6-0.5-70.1,0c-9.1,0.2-19.4,2.5-25.9,9.5c-6.8,7.2-9.3,15.9-9.6,25.7c-0.5,17.1,0,68.5,0,68.5
	c0.3,9.7,2.8,18.4,9.6,25.7c6.5,6.9,16.8,9.2,25.9,9.5c17.5,0.5,52.6,0.5,70.1,0c9.1-0.2,19.4-2.5,25.9-9.5
	c6.8-7.2,9.3-15.9,9.6-25.7v-68.4c-0.2-9.7-2.8-18.4-9.6-25.7C204.5,83.1,194.2,80.9,185.1,80.6L185.1,80.6z M150,195.6
	c-25.2,0-45.6-20.4-45.6-45.6s20.4-45.6,45.6-45.6s45.6,20.4,45.6,45.6l0,0l0,0C195.6,175.2,175.2,195.6,150,195.6z M195.8,113.8
	c-5,0-9.1-4.1-9.1-9.1s4.1-9.1,9.1-9.1s9.1,4.1,9.1,9.1C204.9,109.7,200.8,113.8,195.8,113.8L195.8,113.8z"/>
<path id="LOCATION" d="M136.7,10.4C92.9,14.9,54.5,38.7,31.2,75.9C-1.9,128.5,4.3,198,46.1,243.8c23.1,25.4,52.1,40.5,86.8,45.5
	c6.5,0.9,28,0.9,34.8,0c31.7-4.4,60.1-18.5,81.6-40.5c7.1-7.2,8.6-8.9,13.3-15.2c14-18.7,23.1-41.5,26.7-66.4
	c0.9-6.5,0.9-28.1,0-34.5c-2.4-16.6-6.7-30.7-13.5-44.6C268.4,73.4,261,63,249.3,51.2c-21.6-21.9-48.7-35.5-79.8-40.1
	C162.8,10.1,143.4,9.6,136.7,10.4z M163.1,60.1c31.4,6.1,54,31.9,56.3,64.2c1.4,20.2-14.2,50.3-48.1,92.3
	c-7,8.6-20.7,24.4-21.1,24.4s-14.2-15.8-21.1-24.4c-18.2-22.6-30.6-41-38.9-57.6c-9.3-18.9-11.2-29.4-7.9-44.9
	c5.6-27.2,27-48.4,54.5-54C143.6,58.8,156,58.8,163.1,60.1L163.1,60.1z M143.6,101.6c-13.8,3.7-22.5,18.1-18.9,31.7
	c3.7,14,18,22.7,31.8,19.2c14-3.7,22.7-18,19.2-31.8c-1.9-7-7.4-14.1-13.5-17.1C156.4,100.8,149.4,100,143.6,101.6z"/>
<path id="WHATSAPP" d="M150,10C72.7,10,10,72.7,10,150s62.7,140,140,140s140-62.7,140-140S227.3,10,150,10z M153,231.5L153,231.5
	c-14,0-27.8-3.5-40.1-10.2l-44.4,11.6l11.9-43.4c-7.3-12.7-11.2-27.2-11.2-41.9c0-46.2,37.6-83.8,83.8-83.8
	c46.3,0,83.8,37.5,83.8,83.8l0,0C236.7,193.9,199.2,231.5,153,231.5z M153,78.1c-38.4,0-69.7,31.2-69.7,69.6
	c0,13.1,3.7,25.9,10.6,37.1l1.6,2.6l-7,25.7l26.4-6.9l2.6,1.5c10.7,6.3,23,9.7,35.4,9.7l0,0c38.4,0,69.6-31.2,69.7-69.6
	C222.6,109.3,191.5,78.1,153,78.1L153,78.1z M194,177.6c-1.7,4.9-10.1,9.4-14.1,10c-3.6,0.5-8.2,0.8-13.2-0.8c-4-1.2-8-2.7-11.9-4.4
	c-21-9.1-34.7-30.2-35.8-31.6c-1.1-1.4-8.6-11.4-8.6-21.7s5.4-15.4,7.3-17.5c1.4-1.6,3.5-2.6,5.6-2.6c1.4,0,2.8,0,4,0.1
	c1.3,0.1,3-0.5,4.7,3.6c1.7,4.2,5.9,14.5,6.5,15.5c0.5,1.1,0.9,2.3,0.2,3.7s-3,4.4-5.2,7.2c-0.9,1.2-2.1,2.2-0.9,4.3
	c1.2,2.1,5.4,9,11.6,14.5c8,7.1,14.7,9.3,16.8,10.4c2.1,1.1,3.3,0.9,4.5-0.5s5.2-6.1,6.6-8.2c1.4-2.1,2.8-1.7,4.7-1.1
	c1.9,0.7,12.2,5.8,14.3,6.8c2.1,1.1,3.5,1.6,4,2.5C195.7,168.5,195.7,172.7,194,177.6z"/>
<path id="EMAIL" d="M154.5,164.7l71.2-56.6V196c0,1.7-1.4,3.1-3.1,3.1H77.4c-1.7,0-3.1-1.4-3.1-3.1v-87.9l71.2,56.6
	C148.1,166.8,151.9,166.8,154.5,164.7z M290,150c0,77.2-62.8,140-140,140S10,227.2,10,150S72.8,10,150,10S290,72.8,290,150z
	 M240.2,104c0-9.7-7.9-17.6-17.6-17.6H77.4c-9.7,0-17.6,7.9-17.6,17.6v92c0,9.7,7.9,17.6,17.6,17.6h145.2c9.7,0,17.6-7.9,17.6-17.6
	L240.2,104L240.2,104z M211.7,100.8H88.3l61.7,49L211.7,100.8z"/>
</svg>
