<?xml version="1.0" encoding="utf-8"?>
<!-- Generator: Adobe Illustrator 25.3.1, SVG Export Plug-In . SVG Version: 6.00 Build 0)  -->
<svg version="1.1" id="Camada_1" xmlns="http://www.w3.org/2000/svg" xmlns:xlink="http://www.w3.org/1999/xlink" x="0px" y="0px"
	 viewBox="0 0 300 300" style="enable-background:new 0 0 300 300;" xml:space="preserve">
<path id="THREE" d="M271.4,121.2h-61.6c-1.8,0-3.5,0.4-5.1,1.1c-1.6,0.7-3.1,1.8-4.2,3.1c-1.2-1.3-2.6-2.4-4.1-3.1
	c-1.6-0.7-3.3-1.1-5.1-1.1h-21v-8.7c0-2.1-0.8-4-2.3-5.5c-1.5-1.5-3.5-2.3-5.6-2.3H150c0-32.1,0.7-37.6-2.5-48.6v-0.2
	c-3.9-13.3-12.1-24.9-23.3-33.2S99.4,10,85.4,10h-66c-0.8,0-1.6,0.3-2.1,0.8c-0.6,0.6-0.9,1.3-0.9,2.1c0,0.8,0.3,1.5,0.9,2.1
	c0.6,0.6,1.3,0.8,2.1,0.8h5.4v46.6h-5.4c-0.8,0-1.6,0.3-2.1,0.8c-0.6,0.6-0.9,1.3-0.9,2.1s0.3,1.5,0.9,2.1c0.6,0.6,1.3,0.8,2.1,0.8
	h57.2c3.8,0,7.4,1.5,10,4.1s4.1,6.2,4.2,9.9v22.6H78.4c-2.1,0-4.1,0.8-5.6,2.3c-1.5,1.5-2.3,3.5-2.3,5.5v8.7H49.4
	c-3.2,0-6.2,1.3-8.5,3.5c-2.2,2.2-3.5,5.2-3.6,8.4v125.5c0,3.2,1.3,6.3,3.6,8.5c2.3,2.3,5.4,3.5,8.7,3.5h5.6v16.3
	c0,0.8,0.3,1.5,0.9,2.1c0.6,0.6,1.3,0.8,2.1,0.8h27.2c0.8,0,1.6-0.3,2.1-0.8c0.6-0.6,0.9-1.3,0.9-2.1v-16.4h103
	c1.7,0,3.5-0.4,5.1-1.2c1.6-0.7,3-1.8,4.1-3.1c1.2,1.3,2.6,2.4,4.2,3.1c1.6,0.7,3.4,1.1,5.1,1.1h27.9v16.4c0,0.8,0.3,1.5,0.9,2.1
	c0.6,0.6,1.3,0.8,2.1,0.8h27.2c0.8,0,1.6-0.3,2.1-0.8c0.6-0.6,0.9-1.3,0.9-2.1v-16.4c1.6,0.1,3.3-0.2,4.9-0.7c1.6-0.6,3-1.4,4.2-2.6
	c1.2-1.1,2.1-2.5,2.8-4c0.7-1.5,1-3.1,1-4.8V133.2c0-3.2-1.3-6.2-3.6-8.5C277.7,122.5,274.6,121.2,271.4,121.2z M144.1,77.9H96.2
	c-0.2-0.9-0.5-1.7-0.8-2.6l47.1-14.6C143.7,66.4,144.3,72.2,144.1,77.9z M96.6,92.8v-9.1h47.4v9.1H96.6z M144.1,98.7v6.1H96.6v-6.1
	H144.1z M140.8,55L92.4,70.1l-0.3-0.5l34.2-37.4C132.9,38.7,137.8,46.4,140.8,55z M39.9,62.4h-9.2V15.9h9.2V62.4z M55.1,62.4h-9.2
	V15.9h9.2V62.4z M70.2,62.4H61V15.9h9.2V62.4z M76.6,62.4c-0.6,0-0.4,5.3-0.4-46.6c6.1-0.3,12.3,0,18.3,0.7L79.1,62.5
	C78.3,62.4,77.4,62.4,76.6,62.4L76.6,62.4L76.6,62.4z M87.7,65.8c-0.9-0.6-1.9-1.2-3-1.6l15.5-46.3c7.9,2,15.2,5.7,21.6,10.6
	L87.7,65.8z M76.4,112.5c0-0.2,0-0.5,0.2-0.7c0.1-0.2,0.2-0.5,0.4-0.6c0.2-0.2,0.4-0.3,0.7-0.4c0.2-0.1,0.5-0.2,0.7-0.2h83.9
	c0.2,0,0.5,0.1,0.7,0.2c0.2,0.1,0.5,0.2,0.7,0.4c0.2,0.2,0.3,0.4,0.4,0.6c0.1,0.2,0.2,0.5,0.2,0.7v8.7h-88L76.4,112.5z M82.3,284H61
	v-13.2h21.3V284z M197.5,258.8c0,1.6-0.7,3.2-1.8,4.4s-2.8,1.8-4.5,1.8H49.4c-1.6,0-3.2-0.7-4.4-1.9c-1.2-1.2-1.8-2.7-1.8-4.3V133.2
	c0-0.8,0.2-1.6,0.5-2.4s0.8-1.4,1.4-2c0.6-0.6,1.3-1,2.1-1.3c0.8-0.3,1.6-0.5,2.4-0.5h141.7c0.8,0,1.6,0.2,2.4,0.5
	c0.7,0.3,1.5,0.8,2,1.4c0.6,0.6,1,1.3,1.3,2c0.3,0.7,0.5,1.6,0.4,2.4L197.5,258.8L197.5,258.8z M264.8,284.3h-21.3v-13.5h21.3V284.3
	z M277.7,258.9c0,1.6-0.7,3.2-1.8,4.4c-1.2,1.2-2.8,1.8-4.5,1.8h-61.6c-0.8,0-1.7-0.2-2.5-0.5c-0.8-0.3-1.5-0.8-2.1-1.4
	c-0.6-0.6-1.1-1.3-1.4-2.1c-0.3-0.8-0.5-1.6-0.5-2.4V133.2c0-1.6,0.7-3.2,1.8-4.4c1.2-1.2,2.8-1.8,4.5-1.8h61.7
	c1.7,0,3.3,0.7,4.5,1.8c1.2,1.2,1.8,2.7,1.8,4.4V258.9z M159.8,157.3c-7.8-7.7-17.7-12.9-28.5-15.1c-10.8-2.1-22-1.1-32.2,3.1
	c-10.2,4.1-18.9,11.2-25,20.2c-6.1,9-9.4,19.6-9.4,30.5s3.3,21.5,9.4,30.5s14.8,16.1,25,20.2c10.2,4.1,21.4,5.2,32.2,3.1
	c10.8-2.1,20.7-7.4,28.5-15.1c5.2-5.1,9.3-11.1,12.1-17.8c2.8-6.6,4.2-13.8,4.2-21c0-7.2-1.4-14.3-4.2-21
	C169.1,168.5,165,162.4,159.8,157.3z M170,193.1h-11.9c-0.6-7.9-3.7-15.3-8.9-21.4l8.3-8.2C164.9,171.7,169.3,182.1,170,193.1z
	 M111.4,195.8c0-1.7,0.5-3.4,1.5-4.9c1-1.4,2.4-2.6,4-3.2c1.6-0.7,3.4-0.8,5.1-0.5c1.7,0.3,3.3,1.2,4.5,2.4c1.2,1.2,2.1,2.8,2.4,4.5
	c0.3,1.7,0.2,3.5-0.5,5.1c-0.7,1.6-1.8,3-3.3,3.9c-1.5,1-3.2,1.5-4.9,1.5c-2.4,0-4.6-0.9-6.3-2.6
	C112.4,200.4,111.4,198.2,111.4,195.8z M117.4,181.6c-1.9,0.4-3.7,1.1-5.3,2.2l-12.2-12c4.9-4.1,11.1-6.6,17.5-7.1L117.4,181.6
	L117.4,181.6z M107.9,187.9c-1.1,1.6-1.8,3.3-2.1,5.2H88.3c0.6-6.3,3.1-12.4,7.3-17.2L107.9,187.9z M105.8,199
	c0.4,1.8,1.1,3.5,2.2,5l-12.4,12.2c-4.1-4.9-6.7-10.9-7.3-17.2H105.8z M123.3,210.2c1.8-0.4,3.6-1.1,5.1-2.1l12.4,12.2
	c-5,4.1-11.1,6.6-17.5,7.2V210.2z M132.7,204c1.1-1.6,1.8-3.3,2.2-5.1h17.4c-0.6,6.3-3.1,12.4-7.3,17.2L132.7,204z M134.9,193.1
	c-0.4-1.8-1.1-3.6-2.2-5.1l12.3-12c4.1,4.9,6.7,10.9,7.3,17.2L134.9,193.1z M123.3,147.1c11.1,0.6,21.7,4.9,30,12.3l-8.3,8.2
	c-6.1-5.1-13.7-8.2-21.7-8.7V147.1z M123.3,164.6c6.4,0.6,12.5,3.1,17.5,7.1l-12.2,12c-1.6-1.1-3.4-1.8-5.3-2.2L123.3,164.6
	L123.3,164.6z M117.4,147.1v11.7c-8,0.6-15.6,3.6-21.7,8.7l-8.3-8.2C95.7,152,106.2,147.7,117.4,147.1z M83.1,163.5l8.3,8.2
	c-5.2,6-8.3,13.5-8.9,21.4H70.7C71.3,182.1,75.7,171.7,83.1,163.5z M70.6,198.9h11.9c0.6,7.9,3.7,15.3,8.9,21.4l-8.3,8.2
	C75.6,220.3,71.3,209.9,70.6,198.9z M117.4,244.9c-11.1-0.7-21.7-4.9-30-12.3l8.3-8.2c6.1,5.1,13.7,8.2,21.7,8.7V244.9z
	 M117.4,227.3c-6.4-0.6-12.5-3.1-17.5-7.2l12.4-12.2c1.6,1,3.3,1.7,5.1,2.1L117.4,227.3L117.4,227.3z M123.3,244.9v-11.7
	c8-0.6,15.6-3.6,21.7-8.7l8.3,8.2C145,239.9,134.4,244.2,123.3,244.9z M157.6,228.5l-8.3-8.2c5.2-6,8.3-13.5,8.9-21.4H170
	C169.3,209.9,164.9,220.3,157.6,228.5L157.6,228.5L157.6,228.5z M57.5,240.8c-1.7,0-3.4,0.5-4.8,1.4c-1.4,0.9-2.5,2.2-3.2,3.8
	c-0.7,1.6-0.8,3.2-0.5,4.9c0.3,1.6,1.2,3.1,2.4,4.3c1.2,1.2,2.7,2,4.4,2.3c1.7,0.3,3.4,0.2,5-0.5c1.6-0.7,2.9-1.7,3.9-3.1
	s1.5-3,1.5-4.7c0-1.1-0.2-2.2-0.7-3.2c-0.4-1-1.1-2-1.9-2.7s-1.7-1.4-2.8-1.8C59.7,241,58.6,240.8,57.5,240.8z M57.5,251.8
	c-0.5,0-1.1-0.2-1.5-0.4c-0.4-0.3-0.8-0.7-1-1.2c-0.2-0.5-0.2-1-0.2-1.5c0.1-0.5,0.4-1,0.7-1.3s0.8-0.6,1.4-0.7
	c0.5-0.1,1.1,0,1.6,0.2c0.5,0.2,0.9,0.6,1.2,1c0.3,0.4,0.4,0.9,0.4,1.5c0,0.7-0.3,1.3-0.8,1.8C58.8,251.6,58.2,251.8,57.5,251.8z
	 M183.4,240.8c-1.7,0-3.4,0.5-4.8,1.4c-1.4,0.9-2.5,2.2-3.2,3.8c-0.7,1.6-0.8,3.2-0.5,4.9c0.3,1.6,1.2,3.1,2.4,4.3
	c1.2,1.2,2.7,2,4.4,2.3c1.7,0.3,3.4,0.2,5-0.5c1.6-0.7,2.9-1.7,3.9-3.1s1.5-3,1.5-4.7c0-1.1-0.2-2.2-0.7-3.2c-0.4-1-1.1-2-1.9-2.7
	s-1.7-1.4-2.8-1.8C185.6,241,184.5,240.8,183.4,240.8z M183.4,251.8c-0.5,0-1.1-0.2-1.5-0.4c-0.4-0.3-0.8-0.7-1-1.2
	c-0.2-0.5-0.2-1-0.2-1.5c0.1-0.5,0.4-1,0.7-1.3s0.8-0.6,1.4-0.7c0.5-0.1,1.1,0,1.6,0.2c0.5,0.2,0.9,0.6,1.2,1
	c0.3,0.4,0.4,0.9,0.4,1.5c0,0.3-0.1,0.7-0.2,1c-0.1,0.3-0.3,0.6-0.6,0.8c-0.2,0.2-0.5,0.4-0.9,0.6
	C184.1,251.8,183.7,251.8,183.4,251.8z M57.5,148.7c1.7,0,3.4-0.5,4.8-1.4c1.4-0.9,2.5-2.2,3.2-3.8c0.7-1.6,0.8-3.2,0.5-4.9
	c-0.3-1.6-1.2-3.1-2.4-4.3c-1.2-1.2-2.7-2-4.4-2.3c-1.6-0.3-3.4-0.2-5,0.5c-1.6,0.7-2.9,1.7-3.9,3.1c-0.9,1.4-1.5,3-1.5,4.7
	c0,1.1,0.2,2.2,0.7,3.2c0.4,1,1.1,2,1.9,2.7c0.8,0.8,1.7,1.4,2.8,1.8C55.2,148.5,56.3,148.7,57.5,148.7z M57.5,137.6
	c0.5,0,1.1,0.2,1.5,0.4c0.4,0.3,0.8,0.7,1,1.2c0.2,0.5,0.2,1,0.2,1.5c-0.1,0.5-0.3,1-0.7,1.3c-0.4,0.4-0.8,0.6-1.4,0.7
	c-0.5,0.1-1.1,0.1-1.6-0.2c-0.5-0.2-0.9-0.5-1.2-1c-0.3-0.4-0.4-0.9-0.4-1.5c0-0.7,0.3-1.4,0.8-1.9
	C56.1,137.9,56.7,137.6,57.5,137.6z M183.4,131.8c-1.7,0-3.4,0.5-4.8,1.4c-1.4,0.9-2.5,2.2-3.2,3.8c-0.7,1.6-0.8,3.2-0.5,4.9
	c0.3,1.6,1.2,3.1,2.4,4.3c1.2,1.2,2.7,2,4.4,2.3c1.7,0.3,3.4,0.2,5-0.5c1.6-0.7,2.9-1.7,3.9-3.1c0.9-1.4,1.5-3,1.5-4.7
	c0-2.2-0.9-4.4-2.5-6C187.8,132.7,185.7,131.8,183.4,131.8z M183.4,142.9c-0.5,0-1.1-0.2-1.5-0.4c-0.4-0.3-0.8-0.7-1-1.2
	c-0.2-0.5-0.2-1-0.2-1.5c0.1-0.5,0.3-1,0.7-1.3c0.4-0.4,0.8-0.6,1.4-0.7s1.1-0.1,1.6,0.2c0.5,0.2,0.9,0.5,1.2,1s0.4,0.9,0.4,1.5
	c0,0.7-0.3,1.4-0.8,1.9C184.8,142.6,184.1,142.9,183.4,142.9z M223.4,194.3h34.4c2.3,0,4.5-0.9,6.1-2.5c1.6-1.6,2.5-3.7,2.5-6v-42.4
	c0-2.2-0.9-4.4-2.5-6c-1.6-1.6-3.8-2.5-6.1-2.5h-34.4c-2.3,0-4.5,0.9-6.1,2.5c-1.6,1.6-2.5,3.7-2.5,6v42.4c0,2.2,0.9,4.4,2.5,6
	C218.9,193.4,221.1,194.3,223.4,194.3z M220.7,143.4c0-0.7,0.3-1.3,0.8-1.8c0.5-0.5,1.2-0.7,1.9-0.7h34.4c0.7,0,1.4,0.3,1.9,0.7
	c0.5,0.5,0.8,1.2,0.8,1.8v42.4c0,0.7-0.3,1.3-0.8,1.8c-0.5,0.5-1.2,0.7-1.9,0.7h-34.4c-0.7,0-1.4-0.3-1.9-0.7
	c-0.5-0.5-0.8-1.2-0.8-1.8L220.7,143.4L220.7,143.4z M263.4,212.7h-45.6c-0.8,0-1.6,0.3-2.1,0.8c-0.6,0.6-0.9,1.3-0.9,2.1
	s0.3,1.5,0.9,2.1c0.6,0.6,1.3,0.8,2.1,0.8h45.6c0.8,0,1.6-0.3,2.1-0.8c0.6-0.6,0.9-1.3,0.9-2.1s-0.3-1.5-0.9-2.1
	C264.9,212.9,264.2,212.7,263.4,212.7z M263.4,227.6h-45.6c-0.8,0-1.6,0.3-2.1,0.8c-0.6,0.6-0.9,1.3-0.9,2.1s0.3,1.5,0.9,2.1
	c0.6,0.5,1.3,0.8,2.1,0.8h45.6c0.8,0,1.6-0.3,2.1-0.8c0.5-0.5,0.9-1.3,0.9-2.1s-0.3-1.5-0.9-2.1
	C264.9,227.9,264.2,227.6,263.4,227.6z M263.4,242.6h-45.6c-0.8,0-1.6,0.3-2.1,0.8c-0.6,0.6-0.9,1.3-0.9,2.1s0.3,1.5,0.9,2.1
	c0.6,0.6,1.3,0.8,2.1,0.8h45.6c0.8,0,1.6-0.3,2.1-0.8c0.6-0.6,0.9-1.3,0.9-2.1s-0.3-1.5-0.9-2.1
	C264.9,242.9,264.2,242.6,263.4,242.6z"/>
<path id="TWO" d="M267.4,154.5h-41.9c7-13.1,10.6-27.8,10.2-42.6c-0.3-14.8-4.5-29.3-12.1-42.1c-7.6-12.8-18.4-23.3-31.3-30.6
	C179.4,31.9,164.8,28,150,28s-29.4,3.9-42.3,11.2S84,57.1,76.3,69.8s-11.8,27.3-12.1,42.1c-0.3,14.8,3.2,29.5,10.2,42.6H32.6
	c-6,0-11.7,2.4-16,6.6c-4.2,4.2-6.6,10-6.6,16v72.3c0,6,2.4,11.7,6.6,16s10,6.6,16,6.6h234.8c6,0,11.7-2.4,16-6.6
	c4.2-4.2,6.6-10,6.6-16v-72.3c0-6-2.4-11.7-6.6-16C279.1,156.9,273.4,154.5,267.4,154.5z M150,37.1c19.2,0,37.7,7.2,51.9,20.2
	c14.2,13,22.9,30.8,24.6,50s-4,38.2-15.7,53.4C199,176,182,186.2,163.1,189.5c-1.2,0.2-2.2,0.9-2.9,1.8L150,205.5l-10.1-14.2
	c-0.7-1-1.7-1.6-2.9-1.8c-18.9-3.3-36-13.5-47.7-28.7c-11.8-15.2-17.4-34.3-15.7-53.4s10.4-37,24.6-50
	C112.3,44.3,130.8,37.1,150,37.1z M244.8,244.8H55.2v-4.5c0-1.2,0.5-2.3,1.3-3.2c0.8-0.8,2-1.3,3.2-1.3h180.6c1.2,0,2.3,0.5,3.2,1.3
	c0.8,0.8,1.3,2,1.3,3.2L244.8,244.8L244.8,244.8z M55.2,253.9h189.7v9H55.2V253.9z M281,249.4c0,3.6-1.4,7-4,9.6c-2.6,2.6-6,4-9.6,4
	h-13.5v-22.6c0-3.6-1.4-7-4-9.6c-2.6-2.6-6-4-9.6-4H59.7c-3.6,0-7,1.4-9.6,4c-2.6,2.6-4,6-4,9.6v22.6H32.6c-3.6,0-7-1.4-9.6-4
	c-2.6-2.6-4-6-4-9.6v-72.2c0-3.6,1.4-7,4-9.6c2.6-2.6,6-4,9.6-4H80c12.8,18,31.9,30.3,53.5,34.5l12.7,17.8c0.4,0.6,1,1.1,1.6,1.4
	s1.3,0.5,2.1,0.5c0.7,0,1.4-0.2,2.1-0.5c0.7-0.3,1.2-0.8,1.6-1.4l12.7-17.8c21.6-4.2,40.8-16.5,53.5-34.5h47.4c3.6,0,7,1.4,9.6,4
	s4,6,4,9.6L281,249.4L281,249.4z M258.4,172.6c-2.7,0-5.3,0.8-7.5,2.3c-2.2,1.5-4,3.6-5,6.1c-1,2.5-1.3,5.2-0.8,7.8
	c0.5,2.6,1.8,5,3.7,6.9c1.9,1.9,4.3,3.2,6.9,3.7c2.6,0.5,5.4,0.2,7.8-0.8c2.5-1,4.6-2.8,6.1-5c1.5-2.2,2.3-4.9,2.3-7.5
	c0-3.6-1.4-7-4-9.6C265.4,174,262,172.6,258.4,172.6z M258.4,190.6c-0.9,0-1.8-0.3-2.5-0.7c-0.7-0.5-1.3-1.2-1.6-2
	c-0.3-0.8-0.4-1.7-0.2-2.6c0.2-0.9,0.6-1.7,1.2-2.3c0.6-0.6,1.4-1.1,2.3-1.2s1.8-0.1,2.6,0.2c0.8,0.3,1.5,0.9,2,1.6
	c0.5,0.7,0.7,1.6,0.7,2.5c0,1.2-0.5,2.3-1.3,3.2C260.7,190.2,259.6,190.6,258.4,190.6z M100.4,156.3l10.8-10.8h7.2v7.2l-10.8,10.8
	c-0.5,0.5-0.9,1.2-1.2,1.9c-0.2,0.7-0.2,1.5-0.1,2.2c0.2,0.7,0.5,1.4,1,2c0.5,0.6,1.2,1,1.9,1.3c2.9,1.1,6,1.6,9.1,1.7
	c7.2,0,14.1-2.9,19.2-7.9c5.1-5.1,7.9-12,7.9-19.2c0-2.1-0.3-4.3-0.8-6.3l3.1-3.1l35.2,35.2c0.8,0.8,2,1.3,3.2,1.3
	c1.2,0,2.3-0.5,3.2-1.3l18.1-18.1c0.8-0.8,1.3-2,1.3-3.2s-0.5-2.3-1.3-3.2l-35.2-35.2l3.1-3.1c2.1,0.5,4.2,0.8,6.3,0.8
	c4.4,0,8.6-1,12.5-3c3.9-2,7.2-4.9,9.7-8.5c2.5-3.6,4.1-7.7,4.7-12c0.6-4.3,0.1-8.7-1.5-12.8c-0.2-0.7-0.7-1.4-1.3-1.9
	c-0.6-0.5-1.2-0.8-2-1c-0.7-0.2-1.5-0.2-2.2,0.1c-0.7,0.2-1.4,0.6-1.9,1.2l-10.8,10.8h-7.2v-7.2l10.8-10.8c0.5-0.5,0.9-1.2,1.2-1.9
	c0.2-0.7,0.2-1.5,0.1-2.2c-0.2-0.7-0.5-1.4-1-2c-0.5-0.6-1.2-1-1.9-1.3c-4.1-1.5-8.5-2-12.8-1.4c-4.3,0.6-8.4,2.1-12,4.7
	c-3.6,2.5-6.5,5.8-8.5,9.7s-3,8.2-3,12.5c0,2.1,0.3,4.3,0.8,6.3L150,94l-4.5-4.5v-7.2c0-1.2-0.5-2.3-1.3-3.2l-22.6-22.6
	c-0.8-0.8-2-1.3-3.2-1.3c-1.2,0-2.3,0.5-3.2,1.3L92.6,79.1c-0.8,0.8-1.3,2-1.3,3.2s0.5,2.3,1.3,3.2l22.6,22.6c0.8,0.8,2,1.3,3.2,1.3
	h7.2l4.5,4.5l-5.3,5.3c-2.1-0.5-4.2-0.8-6.3-0.8c-4.4,0-8.6,1-12.5,3c-3.9,2-7.2,4.9-9.7,8.5c-2.5,3.6-4.1,7.7-4.7,12
	c-0.6,4.3-0.1,8.7,1.5,12.8c0.2,0.7,0.7,1.4,1.3,1.9c0.6,0.5,1.2,0.8,2,1c0.7,0.2,1.5,0.2,2.2-0.1
	C99.2,157.2,99.9,156.9,100.4,156.3L100.4,156.3z M186.1,161.7l-34.3-34.3l11.7-11.7l34.3,34.3L186.1,161.7z M163.6,93.1
	c0.6-0.6,1-1.4,1.2-2.2c0.2-0.8,0.1-1.7-0.2-2.5c-0.7-2-1.1-4-1.2-6.1c0-4.4,1.6-8.7,4.6-12s7.1-5.4,11.5-5.9l-5.7,5.7
	c-0.8,0.8-1.3,2-1.3,3.2v13.5c0,1.2,0.5,2.3,1.3,3.2c0.8,0.8,2,1.3,3.2,1.3h13.5c1.2,0,2.3-0.5,3.2-1.3l5.7-5.7
	c-0.5,4.4-2.6,8.5-5.9,11.5c-3.3,3-7.6,4.6-12,4.6c-2.1,0-4.1-0.4-6.1-1.2c-0.8-0.3-1.7-0.3-2.5-0.2c-0.8,0.2-1.6,0.6-2.2,1.2
	l-5.2,5.2c-0.6-0.3-1.3-0.5-2.1-0.5c-0.7,0-1.4,0.2-2.1,0.5l-5.1-5.1L163.6,93.1z M120.3,100.3l-18.1-18.1L118.4,66l18.1,18.1v7.2
	c0,1.2,0.5,2.3,1.3,3.2l17.1,17.1l-7.2,7.2l-17.1-17.1c-0.8-0.8-2-1.3-3.2-1.3L120.3,100.3L120.3,100.3z M118.4,127.4
	c2.1,0,4.1,0.4,6.1,1.2c0.8,0.3,1.7,0.3,2.5,0.2c0.8-0.2,1.6-0.6,2.2-1.2l7.2-7.2l5.1,5.1c-0.3,0.6-0.5,1.3-0.5,2.1
	c0,0.7,0.2,1.4,0.5,2.1l-5.2,5.2c-0.6,0.6-1,1.4-1.2,2.2c-0.2,0.8-0.1,1.7,0.2,2.5c0.7,2,1.1,4,1.2,6.1c0,4.4-1.6,8.7-4.6,12
	c-3,3.3-7.1,5.4-11.5,5.9l5.7-5.7c0.8-0.8,1.3-2,1.3-3.2V141c0-1.2-0.5-2.3-1.3-3.2c-0.8-0.8-2-1.3-3.2-1.3h-13.5
	c-1.2,0-2.3,0.5-3.2,1.3l-5.7,5.7c0.5-4.4,2.6-8.5,5.9-11.5C109.6,129.1,113.9,127.4,118.4,127.4z"/>
<path id="ONE" d="M258.6,118.4h-31c0.5-0.8,0.8-1.9,0.7-2.9c-0.1-1-0.6-1.9-1.2-2.6l-7.6-7.6c2.6-4.4,4.5-9.1,5.8-14H236
	c1.2,0,2.3-0.5,3.2-1.3c0.8-0.8,1.3-2,1.3-3.2V68.7c0-1.2-0.5-2.3-1.3-3.2c-0.8-0.8-2-1.3-3.2-1.3h-10.7c-1.3-4.9-3.2-9.6-5.8-14
	l7.6-7.6c0.8-0.8,1.3-2,1.3-3.2c0-1.2-0.5-2.3-1.3-3.2l-12.7-12.8c-0.8-0.8-2-1.3-3.2-1.3c-1.2,0-2.3,0.5-3.2,1.3l-7.6,7.6
	c-4.4-2.6-9.1-4.5-14-5.8V14.5c0-1.2-0.5-2.3-1.3-3.2c-0.8-0.8-2-1.3-3.2-1.3h-18.1c-1.2,0-2.3,0.5-3.2,1.3c-0.8,0.8-1.3,2-1.3,3.2
	v10.7c-4.9,1.3-9.6,3.2-14,5.8l-7.6-7.6c-0.8-0.8-2-1.3-3.2-1.3s-2.3,0.5-3.2,1.3l-12.7,12.7c-0.8,0.8-1.3,2-1.3,3.2
	c0,1.2,0.5,2.3,1.3,3.2l3.5,3.5h-17c-1.2,0-2.3,0.5-3.2,1.3c-0.8,0.8-1.3,2-1.3,3.2v6.6c-2.5,0.8-5,1.8-7.3,3l-4.6-4.7
	c-0.8-0.8-2-1.3-3.2-1.3s-2.3,0.5-3.2,1.3L69.2,68.5c-0.8,0.8-1.3,2-1.3,3.2c0,1.2,0.5,2.3,1.3,3.2l4.6,4.6c-1.2,2.4-2.2,4.8-3,7.3
	h-6.6c-1.2,0-2.3,0.5-3.2,1.3c-0.9,0.9-1.3,2-1.3,3.2v18.1c0,1.2,0.5,2.3,1.3,3.2c0.9,0.9,2,1.3,3.2,1.3h6.6c0.5,1.5,1.1,3,1.7,4.5
	H41.6c-8.4,0-16.4,3.3-22.3,9.3c-5.9,5.9-9.3,14-9.3,22.3v85.8c0,4.8,1.9,9.4,5.3,12.8s8,5.3,12.8,5.3h243.9c4.8,0,9.4-1.9,12.8-5.3
	c3.4-3.4,5.3-8,5.3-12.8V150c0-8.4-3.3-16.4-9.3-22.3C275,121.7,266.9,118.4,258.6,118.4z M134.4,33.1l7,7c0.7,0.7,1.7,1.2,2.8,1.3
	c1.1,0.1,2.1-0.2,3-0.8c5.2-3.6,11.2-6.1,17.4-7.2c1-0.2,2-0.7,2.6-1.6c0.7-0.8,1.1-1.8,1.1-2.9v-9.9h9v9.8c0,1.1,0.4,2.1,1,2.9
	c0.7,0.8,1.6,1.4,2.6,1.6c6.3,1.2,12.2,3.6,17.4,7.2c0.9,0.6,1.9,0.9,3,0.8c1.1-0.1,2-0.6,2.8-1.3l7-7l6.4,6.4l-7,7
	c-0.7,0.7-1.2,1.7-1.3,2.8c-0.1,1.1,0.2,2.1,0.8,3c3.6,5.2,6.1,11.2,7.2,17.4c0.2,1,0.7,2,1.6,2.6c0.8,0.7,1.8,1,2.9,1h9.8v9h-9.8
	c-1.1,0-2.1,0.4-2.9,1c-0.8,0.7-1.4,1.6-1.6,2.6c-1.2,6.3-3.6,12.2-7.2,17.4c-0.6,0.9-0.9,1.9-0.8,3c0.1,1.1,0.6,2,1.3,2.8l7,7
	l-6.4,6.4l-7-7c-0.7-0.7-1.7-1.2-2.8-1.3c-1.1-0.1-2.1,0.2-3,0.8c-5.2,3.6-11.2,6.1-17.4,7.2c-1,0.2-2,0.7-2.6,1.6s-1.1,1.8-1.1,2.9
	v9.8h-9v-9.8c0-1.1-0.4-2.1-1-2.9c-0.7-0.8-1.6-1.4-2.6-1.6c-3.3-0.6-6.5-1.6-9.6-2.9c0.8-1.7,1.5-3.5,2.1-5.4h6.6
	c1.2,0,2.3-0.5,3.2-1.3c0.8-0.8,1.3-2,1.3-3.2v-0.4c1.5,0.2,3,0.4,4.5,0.4c5.4,0,10.6-1.3,15.3-3.9c4.7-2.6,8.6-6.3,11.5-10.8
	s4.5-9.7,4.9-15c0.3-5.3-0.7-10.7-3-15.5s-5.8-9-10.1-12.1c-4.4-3.1-9.4-5.1-14.7-5.7c-5.3-0.6-10.7,0.1-15.6,2.1
	c-4.9,2-9.3,5.3-12.7,9.4l-2.3-2.3c-0.8-0.8-2-1.3-3.2-1.3s-2.3,0.5-3.2,1.3l-4.6,4.7c-1-0.5-2.1-1-3.1-1.5c1.1-2.3,2.3-4.6,3.7-6.7
	c0.6-0.9,0.9-1.9,0.8-3c-0.1-1.1-0.6-2-1.3-2.8l-7-7L134.4,33.1z M158.8,68.4l-4.1-4.1c2.4-3.3,5.7-5.9,9.4-7.5
	c3.8-1.6,7.9-2.2,11.9-1.6s7.9,2.1,11.1,4.7c3.2,2.5,5.7,5.9,7.1,9.7c1.5,3.8,1.9,8,1.2,12s-2.5,7.8-5.1,10.9
	c-2.6,3.1-6.1,5.4-10,6.8c-3.9,1.3-8,1.6-12,0.7v-8.5c0-1.2-0.5-2.3-1.3-3.2c-0.8-0.8-2-1.3-3.2-1.3h-6.6c-0.8-2.5-1.8-5-3-7.3
	l4.7-4.6c0.8-0.8,1.3-2,1.3-3.2C160.1,70.4,159.6,69.3,158.8,68.4z M68.9,104.8v-9h5.5c1,0,2-0.3,2.8-1c0.8-0.6,1.4-1.5,1.6-2.5
	c0.9-4,2.5-7.7,4.7-11.2c0.6-0.9,0.8-1.9,0.7-2.9s-0.6-2-1.3-2.7l-3.9-3.9l6.4-6.4l3.9,3.9c0.7,0.7,1.7,1.2,2.7,1.3
	c1,0.1,2.1-0.1,2.9-0.7c3.5-2.2,7.2-3.7,11.2-4.7c1-0.2,1.9-0.8,2.5-1.6c0.6-0.8,1-1.8,1-2.8v-5.5h9v5.5c0,1,0.3,2,1,2.8
	c0.6,0.8,1.5,1.4,2.5,1.6c4,0.9,7.7,2.5,11.2,4.7c0.9,0.6,1.9,0.8,2.9,0.7s2-0.6,2.7-1.3l3.9-3.9l6.4,6.4l-3.9,3.9
	c-0.7,0.7-1.2,1.7-1.3,2.7c-0.1,1,0.1,2.1,0.7,2.9c2.2,3.5,3.7,7.2,4.7,11.2c0.2,1,0.8,1.9,1.6,2.5c0.8,0.6,1.8,1,2.8,1h5.4v9h-5.5
	c-1,0-2,0.3-2.8,1c-0.8,0.6-1.4,1.5-1.6,2.5c-0.9,4-2.5,7.7-4.7,11.2c-0.6,0.9-0.8,1.9-0.7,2.9c0.1,1,0.6,2,1.3,2.7l3.9,3.9
	l-6.4,6.4l-3.9-3.9c-0.7-0.7-1.7-1.2-2.7-1.3c-1-0.1-2.1,0.1-2.9,0.7c-3.5,2.2-7.2,3.7-11.2,4.7c-1,0.2-1.9,0.8-2.5,1.6
	c-0.6,0.8-1,1.8-1,2.8v5.5h-9V140c0-1-0.3-2-1-2.8c-0.6-0.8-1.5-1.4-2.5-1.6c-4-0.9-7.7-2.5-11.2-4.7c-0.9-0.6-1.9-0.8-2.9-0.7
	c-1,0.1-2,0.6-2.7,1.3l-3.9,3.9l-6.3-6.5l3.9-3.9c0.7-0.7,1.2-1.7,1.3-2.7c0.1-1-0.1-2.1-0.7-2.9c-2.2-3.5-3.7-7.2-4.7-11.2
	c-0.2-1-0.8-1.9-1.6-2.5s-1.8-1-2.8-1L68.9,104.8L68.9,104.8z M272.1,244.8H28.3c-2.4,0-4.7-1-6.4-2.6c-1.7-1.7-2.6-4-2.6-6.4v-36.1
	h261.9v36.1c0,2.4-1,4.7-2.6,6.4C276.8,243.9,274.5,244.8,272.1,244.8z M281.1,190.6H19.2V150c0-6,2.4-11.7,6.6-16s10-6.6,16-6.6
	h26.6c-0.3,0.8-0.4,1.7-0.2,2.6c0.2,0.8,0.6,1.6,1.2,2.3L82.1,145c0.8,0.8,2,1.3,3.2,1.3s2.3-0.5,3.2-1.3l4.6-4.6
	c2.4,1.2,4.8,2.2,7.3,3v6.6c0,1.2,0.5,2.3,1.3,3.2c0.8,0.8,2,1.3,3.2,1.3h18.1c1.2,0,2.3-0.5,3.2-1.3c0.8-0.8,1.3-2,1.3-3.2v-6.6
	c2.5-0.8,5-1.8,7.3-3l4.6,4.7c0.8,0.8,2,1.3,3.2,1.3c1.2,0,2.3-0.5,3.2-1.3l12.8-12.8c0.2-0.2,0.3-0.5,0.5-0.7v9.4
	c0,1.2,0.5,2.3,1.3,3.2c0.8,0.8,2,1.3,3.2,1.3h18.1c1.2,0,2.3-0.5,3.2-1.3c0.8-0.8,1.3-2,1.3-3.2v-10.7c4.9-1.3,9.6-3.2,14-5.8
	l7.6,7.6c0.8,0.8,2,1.3,3.2,1.3c1.2,0,2.3-0.5,3.2-1.3l4.6-4.6h39.7c6,0,11.7,2.4,16,6.6c4.2,4.2,6.6,10,6.6,16v40.6H281.1z
	 M258.6,154.5c-2.7,0-5.3,0.8-7.5,2.3c-2.2,1.5-4,3.6-5,6.1c-1,2.5-1.3,5.2-0.8,7.8c0.5,2.6,1.8,5,3.7,6.9c1.9,1.9,4.3,3.2,6.9,3.7
	c2.6,0.5,5.4,0.2,7.8-0.8s4.6-2.8,6.1-5c1.5-2.2,2.3-4.9,2.3-7.5c0-3.6-1.4-7-4-9.6C265.6,156,262.1,154.5,258.6,154.5z
	 M258.6,172.6c-0.9,0-1.8-0.3-2.5-0.7c-0.7-0.5-1.3-1.2-1.6-2c-0.3-0.8-0.4-1.7-0.2-2.6c0.2-0.9,0.6-1.7,1.2-2.3
	c0.6-0.6,1.4-1.1,2.3-1.2c0.9-0.2,1.8-0.1,2.6,0.2c0.8,0.3,1.5,0.9,2,1.6c0.5,0.7,0.7,1.6,0.7,2.5c0,1.2-0.5,2.3-1.3,3.2
	C260.9,172.1,259.7,172.6,258.6,172.6z M222.4,154.5c-2.7,0-5.3,0.8-7.5,2.3c-2.2,1.5-4,3.6-5,6.1c-1,2.5-1.3,5.2-0.8,7.8
	c0.5,2.6,1.8,5,3.7,6.9c1.9,1.9,4.3,3.2,6.9,3.7c2.6,0.5,5.4,0.2,7.8-0.8c2.5-1,4.6-2.8,6.1-5c1.5-2.2,2.3-4.9,2.3-7.5
	c0-3.6-1.4-7-4-9.6C229.5,156,226,154.5,222.4,154.5z M222.4,172.6c-0.9,0-1.8-0.3-2.5-0.7c-0.7-0.5-1.3-1.2-1.6-2
	c-0.3-0.8-0.4-1.7-0.2-2.6c0.2-0.9,0.6-1.7,1.2-2.3c0.6-0.6,1.4-1.1,2.3-1.2c0.9-0.2,1.8-0.1,2.6,0.2s1.5,0.9,2,1.6
	c0.5,0.7,0.7,1.6,0.7,2.5c0,1.2-0.5,2.3-1.3,3.2C224.8,172.1,223.6,172.6,222.4,172.6z M145.7,262.9h9V290h-9V262.9z M55.4,262.9h9
	V290h-9V262.9z M100.5,262.9h9V290h-9V262.9z M190.8,262.9h9V290h-9V262.9z M236,262.9h9V290h-9V262.9z M258.6,208.7H41.8
	c-3.6,0-7,1.4-9.6,4s-4,6-4,9.6c0,3.6,1.4,7,4,9.6c2.6,2.6,6,4,9.6,4h216.8c3.6,0,7-1.4,9.6-4s4-6,4-9.6c0-3.6-1.4-7-4-9.6
	S262.1,208.7,258.6,208.7z M258.6,226.8H41.8c-1.2,0-2.3-0.5-3.2-1.3c-0.8-0.8-1.3-2-1.3-3.2c0-1.2,0.5-2.3,1.3-3.2
	c0.8-0.8,2-1.3,3.2-1.3h216.8c1.2,0,2.3,0.5,3.2,1.3c0.8,0.8,1.3,2,1.3,3.2c0,1.2-0.5,2.3-1.3,3.2
	C260.9,226.3,259.7,226.8,258.6,226.8z M114.1,127.4c5.4,0,10.6-1.6,15.1-4.6c4.4-3,7.9-7.2,10-12.2c2.1-4.9,2.6-10.4,1.6-15.6
	c-1.1-5.3-3.6-10.1-7.4-13.9c-3.8-3.8-8.6-6.4-13.9-7.4c-5.3-1.1-10.7-0.5-15.6,1.6c-4.9,2.1-9.2,5.5-12.2,10
	c-3,4.4-4.6,9.7-4.6,15.1c0,7.2,2.9,14.1,7.9,19.2C100,124.6,106.9,127.4,114.1,127.4z M114.1,82.3c3.6,0,7.1,1.1,10,3
	c3,2,5.3,4.8,6.7,8.1c1.4,3.3,1.7,6.9,1,10.4c-0.7,3.5-2.4,6.7-4.9,9.2c-2.5,2.5-5.8,4.3-9.2,4.9c-3.5,0.7-7.1,0.3-10.4-1
	c-3.3-1.4-6.1-3.7-8.1-6.7c-2-3-3-6.5-3-10c0-4.8,1.9-9.4,5.3-12.8C104.7,84.2,109.3,82.3,114.1,82.3z"/>
</svg>
