<svg version="1.1" xmlns="http://www.w3.org/2000/svg" xmlns:xlink="http://www.w3.org/1999/xlink" viewBox="0 0 1000 1000" style="enable-background:new 0 0 1000 1000;" xml:space="preserve">
<path id="THREE" d="M890.1,407.3h-198c-5.7,0-11.4,1.2-16.5,3.6c-5.2,2.4-9.8,5.8-13.5,10.1c-3.7-4.3-8.2-7.7-13.3-10.1
	c-5.1-2.4-10.7-3.6-16.4-3.6h-67.5v-28.1c0-6.6-2.7-13-7.4-17.7c-4.8-4.7-11.2-7.3-17.9-7.4h-39.4c0-103.2,2.4-120.8-7.9-156.1v-0.5
	c-12.6-42.6-38.8-80-74.9-106.6S337.4,50,292.4,50H80.3c-2.5,0-5,1-6.7,2.7c-1.8,1.8-2.8,4.1-2.8,6.6c0,2.5,1,4.9,2.8,6.6
	c1.8,1.8,4.2,2.7,6.7,2.7h17.5v149.6H80.3c-2.5,0-5,1-6.7,2.7c-1.8,1.8-2.8,4.1-2.8,6.6s1,4.9,2.8,6.6c1.8,1.8,4.2,2.7,6.7,2.7H264
	c12.1,0.1,23.7,4.8,32.2,13.2c8.5,8.4,13.3,19.8,13.4,31.7v72.5h-39.7c-6.7,0-13.2,2.7-17.9,7.4c-4.7,4.7-7.4,11.1-7.4,17.7v28.1
	h-67.7c-10.3,0.1-20,4.2-27.3,11.4c-7.2,7.1-11.4,16.8-11.5,26.9v403.3c0,10.3,4.1,20.1,11.5,27.4c7.4,7.3,17.3,11.4,27.8,11.4h17.9
	v52.5c0,2.5,1,4.9,2.8,6.6c1.8,1.8,4.2,2.7,6.7,2.7h87.5c2.5,0,5-1,6.7-2.7c1.8-1.8,2.8-4.1,2.8-6.6v-52.7h330.8
	c5.6,0,11.2-1.3,16.3-3.7c5.1-2.4,9.6-5.8,13.2-10.1c3.7,4.3,8.2,7.8,13.4,10.1c5.2,2.4,10.8,3.6,16.5,3.6h89.5v52.7
	c0,2.5,1,4.9,2.8,6.6c1.8,1.8,4.2,2.7,6.7,2.7h87.5c2.5,0,5-1,6.7-2.7c1.8-1.8,2.8-4.1,2.8-6.6v-52.7c5.3,0.3,10.7-0.6,15.7-2.4
	c5-1.8,9.6-4.6,13.4-8.3c3.9-3.6,6.9-8,9.1-12.8c2.1-4.8,3.2-10,3.2-15.3V445.8c0-10.2-4.2-20-11.5-27.2
	C910.4,411.4,900.5,407.3,890.1,407.3z M481,268.3H327.1c-0.7-2.8-1.5-5.6-2.6-8.3L475.8,213C479.9,231.1,481.7,249.7,481,268.3z
	 M328.6,316.1V287H481v29.1H328.6z M481,334.9v19.7H328.6v-19.7H481z M470.6,194.7l-155.4,48.5l-1.1-1.5l109.9-120.1
	C445,142.1,461,167.1,470.6,194.7z M146.4,218.4h-29.5V68.8h29.5V218.4z M195.2,218.4h-29.5V68.8h29.5V218.4z M243.8,218.4h-29.5
	V68.8h29.5V218.4z M264.2,218.4c-1.9,0-1.3,17-1.3-149.6c19.7-0.9,39.4-0.1,58.9,2.4l-49.5,147.6c-2.7-0.3-5.5-0.5-8.2-0.5H264.2z
	 M300,229.2c-3-2-6.2-3.8-9.5-5.3L340.3,75c25.3,6.5,48.9,18.2,69.3,34.2L300,229.2z M263.6,379.2c0-0.8,0.1-1.6,0.5-2.4
	c0.3-0.8,0.8-1.5,1.4-2c0.6-0.6,1.3-1,2.1-1.4c0.8-0.3,1.6-0.5,2.4-0.5h269.7c0.8,0,1.7,0.2,2.4,0.5c0.8,0.3,1.5,0.8,2.1,1.4
	c0.6,0.6,1,1.3,1.4,2c0.3,0.8,0.5,1.6,0.5,2.4v28.1H263.5L263.6,379.2z M282.6,930.4h-68.4v-42.5h68.4V930.4z M652.6,849.2
	c0,5.3-2.1,10.4-5.9,14.1c-3.8,3.7-8.9,5.9-14.3,5.9H176.8c-5.3-0.1-10.3-2.3-14-6c-3.7-3.7-5.7-8.7-5.7-13.9V445.8
	c0-2.6,0.5-5.2,1.5-7.6c1-2.4,2.5-4.6,4.4-6.5c1.9-1.9,4.1-3.3,6.6-4.3c2.5-1,5.1-1.5,7.8-1.5h455.3c2.7,0,5.3,0.6,7.7,1.6
	c2.4,1,4.7,2.5,6.5,4.4c1.9,1.9,3.3,4.1,4.3,6.5c1,2.4,1.5,5,1.4,7.7V849.2z M869,931.2h-68.4v-43.3H869V931.2z M910.4,849.6
	c0,5.3-2.1,10.4-5.9,14.1c-3.8,3.7-9,5.9-14.4,5.9h-198c-2.7,0-5.4-0.5-7.9-1.5c-2.5-1-4.8-2.5-6.7-4.4c-1.9-1.9-3.4-4.2-4.4-6.7
	c-1-2.5-1.5-5.1-1.5-7.8V445.8c0-5.3,2.1-10.4,5.9-14.1c3.8-3.7,9-5.9,14.4-5.9h198.2c5.4,0,10.5,2.1,14.4,5.9
	c3.8,3.7,5.9,8.8,5.9,14.1V849.6z M531.6,523.4c-25-24.7-56.9-41.5-91.7-48.4c-34.7-6.8-70.8-3.4-103.5,9.9s-60.7,35.9-80.4,64.9
	c-19.7,29-30.2,63.1-30.2,98c0,34.9,10.5,69,30.2,98c19.7,29,47.7,51.6,80.4,64.9c32.8,13.3,68.8,16.8,103.5,9.9
	c34.7-6.8,66.6-23.7,91.7-48.4c16.6-16.3,29.8-35.7,38.8-57.1c9-21.3,13.6-44.2,13.6-67.4c0-23.1-4.6-46-13.6-67.4
	C561.4,559.1,548.3,539.7,531.6,523.4z M564.2,638.2h-38.1c-1.9-25.3-11.9-49.3-28.6-68.7l26.8-26.4
	C548.1,569.5,562.2,603,564.2,638.2z M376.2,647.1c0-5.6,1.7-11,4.8-15.6c3.1-4.6,7.6-8.2,12.8-10.4c5.2-2.1,11-2.7,16.5-1.6
	c5.5,1.1,10.6,3.8,14.6,7.7c4,3.9,6.7,8.9,7.8,14.4c1.1,5.5,0.5,11.1-1.6,16.3c-2.2,5.1-5.8,9.5-10.5,12.6
	c-4.7,3.1-10.2,4.7-15.9,4.7c-7.6,0-14.9-3-20.2-8.2C379.2,661.7,376.2,654.6,376.2,647.1z M395.3,601.2c-6.1,1.2-11.8,3.6-17,7
	l-39.3-38.6c15.9-13.1,35.6-21.1,56.2-22.9V601.2z M364.8,621.7c-3.4,5-5.7,10.7-6.9,16.6H302c1.9-20.4,10-39.7,23.3-55.4
	L364.8,621.7z M358.1,657.1c1.3,5.8,3.6,11.3,7.1,16.2l-39.8,39.2c-13.3-15.7-21.4-35.1-23.3-55.4H358.1z M414.3,693.1
	c5.9-1.2,11.5-3.4,16.5-6.7l39.8,39.2c-16,13.1-35.6,21.2-56.3,23V693.1z M444.4,673.3c3.4-5,5.8-10.5,7.1-16.3h56
	c-1.9,20.4-10.1,39.7-23.3,55.4L444.4,673.3z M451.7,638.2c-1.2-5.9-3.6-11.5-7.1-16.5L484,583c13.3,15.7,21.4,35.1,23.3,55.4
	L451.7,638.2z M414.3,490.4c35.8,2,69.8,15.9,96.5,39.4L484,556c-19.6-16.4-44-26.3-69.7-28.1V490.4z M414.3,546.7
	c20.7,1.8,40.3,9.8,56.3,22.9l-39.3,38.7c-5.1-3.5-10.9-5.9-17.1-7.1V546.7z M395.3,490.4v37.5c-25.7,1.9-50.1,11.7-69.7,28.1
	l-26.7-26.3C325.6,506.3,359.5,492.4,395.3,490.4z M285.1,543.2l26.8,26.4c-16.7,19.3-26.7,43.4-28.6,68.7h-38.1
	C247.2,603,261.3,569.5,285.1,543.2z M245.1,657h38.1c1.9,25.3,11.9,49.3,28.6,68.7L285,752C261.2,725.7,247.2,692.2,245.1,657z
	 M395.3,804.6c-35.7-2.1-69.7-15.9-96.4-39.4l26.7-26.3c19.6,16.4,44.1,26.3,69.7,28.1V804.6z M395.3,748.3
	c-20.7-1.8-40.3-9.9-56.2-23l39.8-39.2c5,3.2,10.6,5.4,16.4,6.7V748.3z M414.3,804.6v-37.5c25.7-1.9,50.2-11.7,69.8-28.1l26.7,26.3
	C484.1,788.7,450.1,802.6,414.3,804.6z M524.4,752l-26.8-26.4c16.7-19.3,26.7-43.4,28.6-68.7h38.1c-2.1,35.2-16.2,68.7-40.1,95
	H524.4z M202.8,791.5c-5.5,0-10.8,1.6-15.4,4.6c-4.5,3-8.1,7.2-10.2,12.2c-2.1,5-2.6,10.4-1.6,15.7c1.1,5.3,3.7,10.1,7.6,13.9
	c3.9,3.8,8.8,6.4,14.1,7.4c5.4,1,10.9,0.5,16-1.5c5-2.1,9.4-5.5,12.4-10c3-4.5,4.7-9.7,4.7-15.1c0-3.6-0.7-7.1-2.1-10.4
	c-1.4-3.3-3.4-6.3-6-8.8c-2.6-2.5-5.6-4.5-9-5.9C210,792.2,206.4,791.5,202.8,791.5z M202.8,827c-1.7,0-3.4-0.5-4.8-1.4
	c-1.4-0.9-2.5-2.3-3.2-3.8c-0.6-1.5-0.8-3.3-0.5-4.9c0.3-1.6,1.2-3.1,2.4-4.3c1.2-1.2,2.7-2,4.4-2.3c1.7-0.3,3.4-0.1,5,0.5
	c1.6,0.7,2.9,1.8,3.8,3.2c0.9,1.4,1.4,3,1.4,4.7c0,2.2-0.9,4.3-2.5,5.9S205.1,827,202.8,827z M607.4,791.5c-5.5,0-10.8,1.6-15.4,4.6
	c-4.5,3-8.1,7.2-10.2,12.2c-2.1,5-2.6,10.4-1.6,15.7c1.1,5.3,3.7,10.1,7.6,13.9c3.9,3.8,8.8,6.4,14.1,7.4c5.4,1,10.9,0.5,16-1.5
	c5-2.1,9.4-5.5,12.4-10c3-4.5,4.7-9.7,4.7-15.1c0-3.6-0.7-7.1-2.1-10.4c-1.4-3.3-3.4-6.3-6-8.8c-2.6-2.5-5.6-4.5-9-5.9
	C614.6,792.2,611,791.5,607.4,791.5z M607.4,827c-1.7,0-3.4-0.5-4.8-1.4c-1.4-0.9-2.5-2.3-3.2-3.8c-0.6-1.5-0.8-3.3-0.5-4.9
	c0.3-1.6,1.2-3.1,2.4-4.3c1.2-1.2,2.7-2,4.4-2.3c1.7-0.3,3.4-0.1,5,0.5c1.6,0.7,2.9,1.8,3.8,3.2c0.9,1.4,1.4,3,1.4,4.7
	c0,1.1-0.2,2.2-0.7,3.2c-0.4,1-1.1,1.9-1.9,2.7c-0.8,0.8-1.7,1.4-2.8,1.8C609.6,826.8,608.5,827,607.4,827z M202.8,495.7
	c5.5,0,10.8-1.6,15.4-4.6c4.5-3,8.1-7.2,10.2-12.2c2.1-5,2.6-10.4,1.6-15.7c-1.1-5.3-3.7-10.1-7.6-13.9c-3.9-3.8-8.8-6.4-14.1-7.4
	s-10.9-0.5-16,1.5c-5,2.1-9.4,5.5-12.4,10c-3,4.5-4.7,9.7-4.7,15.1c0,3.6,0.7,7.1,2.1,10.4c1.4,3.3,3.4,6.3,6,8.8
	c2.6,2.5,5.6,4.5,9,5.9C195.6,495,199.2,495.7,202.8,495.7z M202.8,460.1c1.7,0,3.4,0.5,4.8,1.4c1.4,0.9,2.5,2.2,3.2,3.8
	c0.7,1.5,0.8,3.2,0.5,4.9c-0.3,1.6-1.1,3.1-2.3,4.3c-1.2,1.2-2.7,2-4.4,2.3c-1.7,0.3-3.4,0.2-5-0.5c-1.6-0.6-2.9-1.7-3.8-3.1
	c-0.9-1.4-1.4-3-1.4-4.7c0-2.2,0.9-4.4,2.5-6C198.3,461,200.5,460.1,202.8,460.1z M607.4,441.3c-5.5,0-10.8,1.6-15.4,4.6
	c-4.5,3-8.1,7.2-10.2,12.2c-2.1,5-2.6,10.4-1.6,15.7c1.1,5.3,3.7,10.1,7.6,13.9c3.9,3.8,8.8,6.4,14.1,7.4c5.4,1,10.9,0.5,16-1.5
	c5-2.1,9.4-5.5,12.4-10c3-4.5,4.7-9.7,4.7-15.1c0-7.2-2.9-14.1-8.1-19.2C621.7,444.2,614.7,441.3,607.4,441.3z M607.4,477
	c-1.7,0-3.4-0.5-4.8-1.4c-1.4-0.9-2.5-2.2-3.2-3.8c-0.7-1.5-0.8-3.2-0.5-4.9c0.3-1.6,1.1-3.1,2.3-4.3c1.2-1.2,2.7-2,4.4-2.3
	c1.7-0.3,3.4-0.2,5,0.5c1.6,0.6,2.9,1.7,3.8,3.1c0.9,1.4,1.4,3,1.4,4.7c0,2.2-0.9,4.4-2.5,6C611.8,476.1,609.7,477,607.4,477z
	 M735.8,642h110.5c7.3,0,14.3-2.9,19.5-7.9c5.2-5.1,8.1-12,8.1-19.2V478.7c0-7.2-2.9-14.1-8.1-19.2c-5.2-5.1-12.2-7.9-19.5-7.9
	H735.8c-7.3,0-14.3,2.9-19.5,7.9c-5.2,5.1-8.1,12-8.1,19.2v136.2c0,7.2,2.9,14.1,8.1,19.2C721.5,639.1,728.5,642,735.8,642z
	 M727.4,478.7c0-2.2,0.9-4.3,2.5-5.9c1.6-1.6,3.7-2.4,6-2.4h110.5c2.2,0,4.4,0.9,6,2.4c1.6,1.6,2.5,3.7,2.5,5.9v136.2
	c0,2.2-0.9,4.3-2.5,5.9c-1.6,1.6-3.7,2.4-6,2.4H735.8c-2.2,0-4.4-0.9-6-2.4c-1.6-1.6-2.5-3.7-2.5-5.9V478.7z M864.4,701.1H717.8
	c-2.5,0-5,1-6.7,2.7c-1.8,1.8-2.8,4.1-2.8,6.6s1,4.9,2.8,6.6c1.8,1.8,4.2,2.7,6.7,2.7h146.6c2.5,0,5-1,6.7-2.7
	c1.8-1.8,2.8-4.1,2.8-6.6s-1-4.9-2.8-6.6C869.3,702,866.9,701.1,864.4,701.1z M864.4,749.1H717.8c-2.5,0-5,1-6.7,2.7
	c-1.8,1.8-2.8,4.1-2.8,6.6c0,2.5,1,4.9,2.8,6.6s4.2,2.7,6.7,2.7h146.6c2.5,0,5-1,6.7-2.7s2.8-4.1,2.8-6.6c0-2.5-1-4.9-2.8-6.6
	C869.3,750.1,866.9,749.1,864.4,749.1z M864.4,797.2H717.8c-2.5,0-5,1-6.7,2.7c-1.8,1.8-2.8,4.1-2.8,6.6c0,2.5,1,4.9,2.8,6.6
	c1.8,1.8,4.2,2.7,6.7,2.7h146.6c2.5,0,5-1,6.7-2.7c1.8-1.8,2.8-4.1,2.8-6.6c0-2.5-1-4.9-2.8-6.6
	C869.3,798.2,866.9,797.2,864.4,797.2z"/>
<path id="TWO" d="M877.4,514.6H742.8c22.6-42,34-89.2,32.9-136.9c-1.1-47.7-14.5-94.3-38.9-135.3s-59.2-74.9-100.7-98.5
	C594.6,120.4,547.7,108,500,108c-47.7,0-94.6,12.4-136.1,35.9s-76.2,57.5-100.7,98.5s-37.9,87.6-38.9,135.3
	c-1.1,47.7,10.3,94.9,32.9,136.9H122.6c-19.2,0-37.7,7.7-51.3,21.3C57.7,549.5,50,567.9,50,587.2v232.3c0,19.2,7.7,37.7,21.3,51.3
	c13.6,13.6,32.1,21.3,51.3,21.3h754.8c19.2,0,37.7-7.7,51.3-21.3c13.6-13.6,21.3-32.1,21.3-51.3V587.2c0-19.2-7.7-37.7-21.3-51.3
	C915.1,522.3,896.7,514.6,877.4,514.6z M500,137.2c61.8,0,121.3,23.1,166.9,64.9c45.5,41.8,73.7,99.1,79,160.7
	c5.3,61.6-12.8,122.9-50.5,171.8c-37.8,48.9-92.5,81.9-153.4,92.3c-3.8,0.6-7.1,2.8-9.4,5.9L500,678.3l-32.5-45.6
	c-2.2-3.1-5.6-5.2-9.4-5.9c-60.9-10.5-115.6-43.4-153.4-92.3c-37.8-48.9-55.8-110.2-50.5-171.8c5.3-61.6,33.5-118.9,79-160.7
	C378.7,160.3,438.2,137.2,500,137.2z M804.8,804.9H195.2v-14.5c0-3.8,1.5-7.5,4.3-10.3c2.7-2.7,6.4-4.3,10.3-4.3h580.6
	c3.9,0,7.5,1.5,10.3,4.3c2.7,2.7,4.3,6.4,4.3,10.3V804.9z M195.2,834h609.7v29H195.2V834z M921,819.4c0,11.6-4.6,22.6-12.8,30.8
	C900,858.4,889,863,877.4,863h-43.5v-72.6c0-11.5-4.6-22.6-12.8-30.8c-8.2-8.2-19.2-12.8-30.8-12.8H209.7
	c-11.5,0-22.6,4.6-30.8,12.8c-8.2,8.2-12.8,19.2-12.8,30.8V863h-43.5c-11.5,0-22.6-4.6-30.8-12.8S79,831,79,819.4V587.2
	c0-11.5,4.6-22.6,12.8-30.8c8.2-8.2,19.2-12.8,30.8-12.8h152.5c41,57.7,102.6,97.4,172.1,110.8l40.9,57.3c1.3,1.9,3.1,3.4,5.2,4.5
	c2.1,1.1,4.3,1.6,6.6,1.6c2.3,0,4.6-0.6,6.6-1.6c2.1-1.1,3.8-2.6,5.2-4.5l40.9-57.3c69.5-13.4,131.2-53.1,172.1-110.8h152.5
	c11.6,0,22.6,4.6,30.8,12.8c8.2,8.2,12.8,19.2,12.8,30.8V819.4z M848.4,572.7c-8.6,0-17,2.6-24.2,7.3c-7.2,4.8-12.7,11.6-16,19.5
	c-3.3,8-4.2,16.7-2.5,25.2c1.7,8.4,5.8,16.2,11.9,22.3c6.1,6.1,13.8,10.2,22.3,11.9c8.4,1.7,17.2,0.8,25.2-2.5
	c8-3.3,14.8-8.9,19.5-16c4.8-7.2,7.3-15.6,7.3-24.2c0-11.6-4.6-22.6-12.8-30.8C871,577.3,859.9,572.7,848.4,572.7z M848.4,630.7
	c-2.9,0-5.7-0.9-8.1-2.4c-2.4-1.6-4.2-3.9-5.3-6.5s-1.4-5.6-0.8-8.4c0.6-2.8,1.9-5.4,4-7.4c2-2,4.6-3.4,7.4-4
	c2.8-0.6,5.7-0.3,8.4,0.8c2.7,1.1,4.9,3,6.5,5.3c1.6,2.4,2.4,5.2,2.4,8.1c0,3.8-1.5,7.5-4.3,10.3
	C855.9,629.2,852.2,630.7,848.4,630.7z M340.6,520.4l34.8-34.8h23v23l-34.8,34.8c-1.7,1.7-3,3.9-3.7,6.2c-0.7,2.4-0.8,4.8-0.2,7.2
	c0.5,2.4,1.7,4.6,3.3,6.4c1.6,1.8,3.7,3.2,6,4.1c9.4,3.5,19.4,5.3,29.4,5.4c23.1,0,45.2-9.2,61.6-25.5
	c16.3-16.3,25.5-38.5,25.5-61.6c0-6.9-0.9-13.7-2.6-20.4l9.9-9.9l113.1,113.1c2.7,2.7,6.4,4.3,10.3,4.3c3.8,0,7.5-1.5,10.3-4.3
	l58.1-58.1c2.7-2.7,4.2-6.4,4.2-10.3s-1.5-7.5-4.2-10.3L571.3,376.7l9.9-9.9c6.7,1.7,13.5,2.6,20.4,2.6c14,0.1,27.8-3.2,40.3-9.6
	c12.4-6.4,23.1-15.8,31.2-27.2c8-11.5,13.2-24.7,15-38.6c1.8-13.9,0.2-28-4.7-41.1c-0.8-2.3-2.2-4.4-4.1-6c-1.8-1.6-4-2.7-6.4-3.3
	c-2.4-0.5-4.9-0.5-7.2,0.2c-2.3,0.7-4.5,1.9-6.2,3.7l-34.8,34.8h-23v-23l34.8-34.8c1.7-1.7,3-3.9,3.7-6.2c0.7-2.3,0.8-4.8,0.2-7.2
	c-0.5-2.4-1.7-4.6-3.3-6.4c-1.6-1.8-3.7-3.2-6-4.1c-13.1-4.8-27.2-6.4-41.1-4.6c-13.9,1.8-27.1,6.9-38.5,15
	c-11.5,8-20.8,18.7-27.2,31.1c-6.4,12.4-9.8,26.2-9.7,40.2c0,6.9,0.9,13.7,2.6,20.4L500,319.9l-14.5-14.5v-23
	c0-3.8-1.5-7.5-4.3-10.3l-72.6-72.6c-2.7-2.7-6.4-4.3-10.3-4.3c-3.8,0-7.5,1.5-10.3,4.3l-72.6,72.6c-2.7,2.7-4.2,6.4-4.2,10.3
	s1.5,7.5,4.2,10.3l72.6,72.6c2.7,2.7,6.4,4.3,10.3,4.3h23l14.5,14.5l-17.1,17.1c-6.7-1.7-13.5-2.6-20.4-2.6
	c-14-0.1-27.8,3.2-40.3,9.6c-12.4,6.4-23.1,15.8-31.2,27.2c-8,11.5-13.2,24.7-15,38.6c-1.8,13.9-0.2,28,4.7,41.1
	c0.8,2.3,2.2,4.4,4.1,6c1.8,1.6,4,2.7,6.4,3.3c2.4,0.5,4.9,0.5,7.2-0.2C336.7,523.3,338.9,522.1,340.6,520.4L340.6,520.4z
	 M616.1,537.6L506,427.5l37.5-37.5l110.1,110.1L616.1,537.6z M543.8,317.2c1.9-2,3.3-4.4,3.9-7.1c0.6-2.7,0.4-5.5-0.5-8.1
	c-2.4-6.3-3.6-12.9-3.7-19.6c0-14.3,5.3-28.1,14.8-38.7c9.5-10.6,22.7-17.4,36.9-19L576.8,243c-2.7,2.7-4.3,6.4-4.3,10.3v43.5
	c0,3.8,1.5,7.5,4.3,10.3c2.7,2.7,6.4,4.3,10.3,4.3h43.5c3.8,0,7.5-1.5,10.3-4.3l18.4-18.4c-1.6,14.2-8.3,27.3-19,36.9
	c-10.6,9.5-24.4,14.8-38.7,14.8c-6.7-0.1-13.3-1.3-19.6-3.7c-2.6-0.9-5.4-1.1-8.1-0.5c-2.7,0.6-5.2,2-7.1,3.9l-16.7,16.7
	c-2-1.1-4.3-1.7-6.6-1.7c-2.3,0-4.6,0.6-6.6,1.7l-16.4-16.4L543.8,317.2z M404.4,340.4l-58.1-58.1l52.1-52.1l58.1,58.1v23
	c0,3.8,1.5,7.5,4.3,10.3l55.1,55.1l-23,23l-55.1-55.1c-2.7-2.7-6.4-4.3-10.3-4.3H404.4z M398.4,427.5c6.7,0.1,13.3,1.3,19.6,3.7
	c2.6,1,5.4,1.1,8.1,0.5c2.7-0.6,5.2-2,7.1-3.9l23.2-23.3l16.4,16.4c-1.1,2-1.7,4.3-1.7,6.6c0,2.3,0.6,4.6,1.7,6.6l-16.7,16.6
	c-1.9,2-3.3,4.4-3.9,7.1c-0.6,2.7-0.4,5.5,0.5,8.1c2.4,6.3,3.6,12.9,3.7,19.6c0,14.3-5.3,28.1-14.8,38.7
	c-9.5,10.6-22.7,17.4-36.9,19l18.4-18.4c2.7-2.7,4.3-6.4,4.3-10.3v-43.5c0-3.8-1.5-7.5-4.3-10.3c-2.7-2.7-6.4-4.3-10.3-4.3h-43.5
	c-3.8,0-7.5,1.5-10.3,4.3l-18.4,18.4c1.6-14.2,8.3-27.3,19-36.9C370.3,432.8,384.1,427.5,398.4,427.5z"/>
<path id="ONE" d="M848.4,398.4h-99.5c1.7-2.7,2.5-6,2.1-9.2c-0.3-3.2-1.8-6.2-4-8.5l-24.4-24.4c8.3-14.1,14.6-29.2,18.7-45h34.5
	c3.8,0,7.5-1.5,10.3-4.3c2.7-2.7,4.3-6.4,4.3-10.3v-58.1c0-3.8-1.5-7.5-4.3-10.3c-2.7-2.7-6.4-4.3-10.3-4.3h-34.5
	c-4.1-15.8-10.4-31-18.7-45l24.4-24.4c2.7-2.7,4.3-6.4,4.3-10.3c0-3.8-1.5-7.5-4.3-10.3l-40.9-41c-2.7-2.7-6.4-4.3-10.3-4.3
	c-3.8,0-7.5,1.5-10.3,4.3l-24.5,24.4c-14.1-8.3-29.2-14.6-45-18.7V64.5c0-3.8-1.5-7.5-4.3-10.3c-2.7-2.7-6.4-4.3-10.3-4.3h-58.1
	c-3.8,0-7.5,1.5-10.3,4.3c-2.7,2.7-4.3,6.4-4.3,10.3V99c-15.8,4.1-30.9,10.4-45,18.7l-24.4-24.4c-2.7-2.7-6.4-4.3-10.3-4.3
	s-7.5,1.5-10.3,4.3l-40.9,40.9c-2.7,2.7-4.3,6.4-4.3,10.3c0,3.8,1.5,7.5,4.3,10.3l11.4,11.4h-54.7c-3.8,0-7.5,1.5-10.3,4.3
	c-2.7,2.7-4.3,6.4-4.3,10.3v21.1c-8.1,2.6-16,5.8-23.6,9.8l-14.9-15c-2.7-2.7-6.4-4.3-10.3-4.3s-7.5,1.5-10.3,4.3l-41.1,41.1
	c-2.7,2.7-4.3,6.4-4.3,10.3s1.5,7.5,4.3,10.3l14.9,14.9c-4,7.6-7.2,15.5-9.8,23.6h-21.2c-3.8,0-7.5,1.5-10.3,4.3s-4.3,6.4-4.3,10.3
	v58.1c0,3.8,1.5,7.5,4.3,10.3s6.4,4.3,10.3,4.3h21.2c1.6,4.9,3.4,9.8,5.5,14.5h-99.3c-26.9,0-52.8,10.7-71.8,29.8
	c-19,19-29.8,44.9-29.8,71.8v275.8c0,15.4,6.1,30.2,17,41.1c10.9,10.9,25.7,17,41.1,17h783.9c15.4,0,30.2-6.1,41.1-17
	c10.9-10.9,17-25.7,17-41.1V500c0-26.9-10.7-52.8-29.8-71.8C901.2,409.1,875.3,398.4,848.4,398.4z M449.3,124l22.4,22.4
	c2.4,2.4,5.6,3.9,8.9,4.2c3.4,0.3,6.8-0.6,9.6-2.5c16.8-11.6,35.9-19.5,56-23.2c3.3-0.6,6.3-2.4,8.5-5c2.2-2.6,3.4-5.9,3.4-9.2V79
	h29v31.6c0,3.4,1.2,6.7,3.3,9.3c2.2,2.6,5.2,4.4,8.5,5c20.1,3.7,39.2,11.6,56,23.2c2.8,1.9,6.2,2.8,9.6,2.5c3.4-0.3,6.5-1.8,8.9-4.2
	l22.4-22.4l20.5,20.5l-22.5,22.4c-2.4,2.4-3.9,5.6-4.2,8.9c-0.3,3.4,0.6,6.8,2.5,9.6c11.6,16.8,19.5,35.9,23.2,56
	c0.6,3.3,2.4,6.3,5,8.5c2.6,2.2,5.9,3.3,9.3,3.3h31.6v29h-31.6c-3.4,0-6.7,1.2-9.3,3.3c-2.6,2.2-4.4,5.2-5,8.5
	c-3.7,20.1-11.6,39.2-23.2,56c-1.9,2.8-2.8,6.2-2.5,9.6c0.3,3.4,1.8,6.5,4.2,8.9l22.4,22.4l-20.5,20.5l-22.4-22.4
	c-2.4-2.4-5.6-3.9-8.9-4.2c-3.4-0.3-6.8,0.6-9.6,2.5c-16.8,11.6-35.9,19.5-56,23.2c-3.3,0.6-6.3,2.4-8.5,5c-2.2,2.6-3.4,5.9-3.4,9.2
	v31.6h-29v-31.6c0-3.4-1.2-6.7-3.3-9.3c-2.2-2.6-5.2-4.4-8.5-5c-10.5-2-20.8-5.1-30.7-9.4c2.6-5.6,4.9-11.4,6.8-17.3h21.2
	c3.8,0,7.5-1.5,10.3-4.3c2.7-2.7,4.3-6.4,4.3-10.3v-1.2c4.8,0.7,9.7,1.2,14.5,1.2c17.2,0,34.1-4.3,49.1-12.5
	c15.1-8.3,27.8-20.2,37-34.7c9.2-14.5,14.5-31.1,15.6-48.3c1-17.1-2.3-34.3-9.7-49.8c-7.4-15.5-18.6-28.9-32.6-38.9
	c-14-10-30.2-16.3-47.3-18.3c-17.1-2-34.4,0.3-50.3,6.8c-15.9,6.5-29.9,16.9-40.7,30.3l-7.3-7.3c-2.7-2.7-6.4-4.3-10.3-4.3
	s-7.5,1.5-10.3,4.3L451,211.6c-3.3-1.7-6.6-3.2-10-4.7c3.4-7.5,7.4-14.7,12-21.5c1.9-2.8,2.8-6.2,2.5-9.5c-0.3-3.4-1.8-6.5-4.2-8.9
	l-22.5-22.4L449.3,124z M527.6,237.7l-13.2-13.2c7.7-10.6,18.2-19,30.2-24.2c12.1-5.2,25.3-7,38.3-5.3c13,1.7,25.3,6.9,35.6,15.1
	c10.3,8.1,18.2,18.9,22.9,31.2c4.7,12.3,6,25.6,3.8,38.5c-2.2,12.9-7.9,25-16.5,35c-8.5,10-19.6,17.5-32.1,21.7
	c-12.4,4.2-25.8,5-38.6,2.2v-27.4c0-3.8-1.5-7.5-4.3-10.3c-2.7-2.7-6.4-4.3-10.3-4.3h-21.2c-2.6-8.1-5.8-16-9.8-23.6l15-14.9
	c2.7-2.7,4.3-6.4,4.3-10.3C531.8,244.2,530.3,240.5,527.6,237.7z M238.7,354.8v-29h17.7c3.3,0,6.5-1.1,9-3.2c2.6-2,4.4-4.9,5.1-8.1
	c3-12.8,8-24.9,15-36c1.8-2.8,2.5-6.1,2.1-9.4c-0.4-3.3-1.8-6.3-4.2-8.7L271,248l20.6-20.6l12.5,12.5c2.3,2.3,5.4,3.8,8.7,4.2
	c3.3,0.4,6.6-0.4,9.4-2.1c11.1-7,23.3-12,36-15c3.2-0.7,6.1-2.5,8.1-5.1c2-2.6,3.2-5.8,3.2-9v-17.7h29v17.7c0,3.3,1.1,6.5,3.2,9
	c2,2.6,4.9,4.4,8.1,5.1c12.8,3,24.9,8,36,15c2.8,1.8,6.1,2.5,9.4,2.1c3.3-0.4,6.3-1.8,8.7-4.2l12.5-12.5l20.6,20.6l-12.5,12.5
	c-2.3,2.3-3.8,5.4-4.2,8.7c-0.4,3.3,0.4,6.6,2.1,9.4c7,11.1,12,23.3,15,36c0.7,3.2,2.5,6.1,5.1,8.1c2.6,2,5.8,3.2,9,3.2H529v29
	h-17.7c-3.3,0-6.5,1.1-9,3.2c-2.6,2-4.4,4.9-5.1,8.1c-3,12.8-8,24.9-15,36c-1.8,2.8-2.5,6.1-2.1,9.4c0.4,3.3,1.8,6.3,4.2,8.7
	l12.5,12.5l-20.6,20.6l-12.5-12.5c-2.3-2.3-5.4-3.8-8.7-4.2c-3.3-0.4-6.6,0.4-9.4,2.1c-11.1,7-23.2,12-36,15
	c-3.2,0.7-6.1,2.5-8.1,5.1c-2,2.6-3.2,5.8-3.2,9v17.7h-29v-17.7c0-3.3-1.1-6.5-3.2-9c-2-2.6-4.9-4.4-8.1-5.1c-12.8-2.9-24.9-8-36-15
	c-2.8-1.8-6.1-2.5-9.4-2.1c-3.3,0.4-6.3,1.8-8.7,4.2l-12.5,12.5L271,432.6l12.5-12.5c2.3-2.3,3.8-5.4,4.2-8.7
	c0.4-3.3-0.4-6.6-2.1-9.4c-7-11.1-12-23.3-15-36c-0.7-3.2-2.5-6.1-5.1-8.1c-2.6-2-5.8-3.2-9-3.2H238.7z M891.9,804.8H108.1
	c-7.7,0-15.1-3.1-20.5-8.5c-5.4-5.4-8.5-12.8-8.5-20.5V659.7H921v116.1c0,7.7-3.1,15.1-8.5,20.5C907,801.8,899.6,804.8,891.9,804.8z
	 M921,630.6H79V500c0-19.2,7.7-37.7,21.3-51.3c13.6-13.6,32.1-21.3,51.3-21.3H237c-1,2.6-1.3,5.5-0.7,8.2c0.6,2.7,1.9,5.3,3.9,7.3
	l41.1,41.1c2.7,2.7,6.4,4.3,10.3,4.3s7.5-1.5,10.3-4.3l14.9-14.9c7.6,3.9,15.5,7.2,23.6,9.8V500c0,3.8,1.5,7.5,4.3,10.3
	c2.7,2.7,6.4,4.3,10.3,4.3h58.1c3.8,0,7.5-1.5,10.3-4.3c2.7-2.7,4.3-6.4,4.3-10.3v-21.2c8.1-2.6,16-5.8,23.6-9.8l14.9,15
	c2.7,2.7,6.4,4.3,10.3,4.3c3.8,0,7.5-1.5,10.3-4.3l41.1-41.1c0.6-0.7,1-1.5,1.5-2.2V471c0,3.8,1.5,7.5,4.3,10.3
	c2.7,2.7,6.4,4.3,10.3,4.3h58.1c3.8,0,7.5-1.5,10.3-4.3c2.7-2.7,4.3-6.4,4.3-10.3v-34.5c15.8-4.1,31-10.4,45-18.7l24.4,24.4
	c2.7,2.7,6.4,4.3,10.3,4.3c3.8,0,7.5-1.5,10.3-4.3l14.8-14.8h127.5c19.2,0,37.7,7.7,51.3,21.3c13.6,13.6,21.3,32.1,21.3,51.3V630.6z
	 M848.4,514.5c-8.6,0-17,2.6-24.2,7.3c-7.2,4.8-12.7,11.6-16,19.5c-3.3,8-4.2,16.7-2.5,25.2c1.7,8.4,5.8,16.2,11.9,22.3
	c6.1,6.1,13.8,10.2,22.3,11.9c8.4,1.7,17.2,0.8,25.2-2.5c8-3.3,14.8-8.9,19.5-16c4.8-7.2,7.3-15.6,7.3-24.2
	c0-11.5-4.6-22.6-12.8-30.8C871,519.1,859.9,514.5,848.4,514.5z M848.4,572.6c-2.9,0-5.7-0.9-8.1-2.4c-2.4-1.6-4.2-3.9-5.3-6.5
	c-1.1-2.7-1.4-5.6-0.8-8.4c0.6-2.8,1.9-5.4,4-7.4c2-2,4.6-3.4,7.4-4c2.8-0.6,5.7-0.3,8.4,0.8c2.7,1.1,4.9,3,6.5,5.3
	c1.6,2.4,2.4,5.2,2.4,8.1c0,3.8-1.5,7.5-4.3,10.3C855.9,571.1,852.2,572.6,848.4,572.6z M732.3,514.5c-8.6,0-17,2.6-24.2,7.3
	c-7.2,4.8-12.7,11.6-16,19.5c-3.3,8-4.2,16.7-2.5,25.2c1.7,8.4,5.8,16.2,11.9,22.3c6.1,6.1,13.8,10.2,22.3,11.9
	c8.4,1.7,17.2,0.8,25.2-2.5c8-3.3,14.8-8.9,19.5-16c4.8-7.2,7.3-15.6,7.3-24.2c0-11.5-4.6-22.6-12.8-30.8
	C754.9,519.1,743.8,514.5,732.3,514.5z M732.3,572.6c-2.9,0-5.7-0.9-8.1-2.4c-2.4-1.6-4.2-3.9-5.3-6.5c-1.1-2.7-1.4-5.6-0.8-8.4
	c0.6-2.8,1.9-5.4,4-7.4c2-2,4.6-3.4,7.4-4c2.8-0.6,5.7-0.3,8.4,0.8c2.7,1.1,4.9,3,6.5,5.3c1.6,2.4,2.4,5.2,2.4,8.1
	c0,3.8-1.5,7.5-4.3,10.3C739.8,571.1,736.1,572.6,732.3,572.6z M485.5,862.9h29V950h-29V862.9z M195.2,862.9h29V950h-29V862.9z
	 M340.3,862.9h29V950h-29V862.9z M630.6,862.9h29V950h-29V862.9z M775.8,862.9h29V950h-29V862.9z M848.4,688.7H151.6
	c-11.5,0-22.6,4.6-30.8,12.8c-8.2,8.2-12.8,19.2-12.8,30.8c0,11.6,4.6,22.6,12.8,30.8c8.2,8.2,19.2,12.8,30.8,12.8h696.8
	c11.6,0,22.6-4.6,30.8-12.8c8.2-8.2,12.8-19.2,12.8-30.8c0-11.5-4.6-22.6-12.8-30.8C871,693.3,859.9,688.7,848.4,688.7z
	 M848.4,746.8H151.6c-3.8,0-7.5-1.5-10.3-4.3c-2.7-2.7-4.3-6.4-4.3-10.3c0-3.8,1.5-7.5,4.3-10.3c2.7-2.7,6.4-4.3,10.3-4.3h696.8
	c3.8,0,7.5,1.5,10.3,4.3c2.7,2.7,4.3,6.4,4.3,10.3c0,3.8-1.5,7.5-4.3,10.3C855.9,745.2,852.2,746.8,848.4,746.8z M383.9,427.4
	c17.2,0,34.1-5.1,48.4-14.7c14.3-9.6,25.5-23.2,32.1-39.1c6.6-15.9,8.3-33.4,5-50.3c-3.4-16.9-11.7-32.4-23.8-44.6
	c-12.2-12.2-27.7-20.5-44.6-23.8c-16.9-3.4-34.4-1.6-50.3,5c-15.9,6.6-29.5,17.8-39.1,32.1c-9.6,14.3-14.7,31.2-14.7,48.4
	c0,23.1,9.2,45.2,25.5,61.6C338.6,418.2,360.8,427.4,383.9,427.4z M383.9,282.3c11.5,0,22.7,3.4,32.3,9.8c9.5,6.4,17,15.4,21.4,26.1
	c4.4,10.6,5.5,22.3,3.3,33.5c-2.2,11.3-7.8,21.6-15.9,29.7s-18.5,13.7-29.7,15.9c-11.3,2.2-22.9,1.1-33.5-3.3
	c-10.6-4.4-19.7-11.8-26.1-21.4c-6.4-9.5-9.8-20.8-9.8-32.3c0-15.4,6.1-30.2,17-41.1C353.7,288.4,368.5,282.3,383.9,282.3z"/>
</svg>
