<svg id="light_horizontal" data-name="light / horizontal" xmlns="http://www.w3.org/2000/svg" xmlns:xlink="http://www.w3.org/1999/xlink" viewBox="0 0 867.1146 160"><defs><style>.cls-1,.cls-2{fill:#1a2634;}.cls-1{opacity:0.8;}.cls-3{fill:#0071bc;}.cls-4{fill:url(#Gradiente_sem_nome_62);}.cls-5{fill:url(#Gradiente_sem_nome_44);}</style><linearGradient id="Gradiente_sem_nome_62" x1="169.67674" y1="1076.7033" x2="169.67674" y2="1236.7033" gradientUnits="userSpaceOnUse"><stop offset="0" stop-color="#1a2634"/><stop offset="0.5" stop-color="#203e5f"/><stop offset="0.66272" stop-color="#203c5c"/><stop offset="0.80444" stop-color="#1e3651"/><stop offset="0.9379" stop-color="#1c2c3f"/><stop offset="1" stop-color="#1a2634"/></linearGradient><linearGradient id="Gradiente_sem_nome_44" x1="66.4427" y1="1156.70317" x2="275.9655" y2="1156.70317" gradientUnits="userSpaceOnUse"><stop offset="0" stop-color="#203e5f"/><stop offset="0.99441" stop-color="#0071bc"/></linearGradient></defs><g id="logo_1" data-name="logo#1"><path id="slogan" class="cls-1" d="M317.08138,1203.91285a6.71063,6.71063,0,0,1-3.315-.79428,5.76547,5.76547,0,0,1-2.23259-2.18725,6.24389,6.24389,0,0,1-.80589-3.1876,6.40772,6.40772,0,0,1,.77105-3.1771,5.712,5.712,0,0,1,2.11794-2.17526,6.24258,6.24258,0,0,1,6.05411-.02248,5.49088,5.49088,0,0,1,2.0831,2.16327,6.60117,6.60117,0,0,1,.7598,3.21157c0,.07643-.00412.15736-.01161.24128-.00787.08468-.01162.1731-.01162.26451H311.971v-1.21988h9.64483l-.64442.48331a4.76756,4.76756,0,0,0-.56386-2.33637,4.15505,4.15505,0,0,0-1.53085-1.5998,4.28954,4.28954,0,0,0-2.233-.57547,4.36512,4.36512,0,0,0-2.23259.57547,3.99869,3.99869,0,0,0-1.54247,1.61178,4.95863,4.95863,0,0,0-.55225,2.37084v.25327a4.73507,4.73507,0,0,0,.61,2.42854,4.25672,4.25672,0,0,0,1.70319,1.63426,5.19938,5.19938,0,0,0,2.49785.58671,5.38283,5.38283,0,0,0,2.05987-.39114,4.27421,4.27421,0,0,0,1.64588-1.19666l.92091,1.05878a5.18382,5.18382,0,0,1-2.01417,1.47316A6.81917,6.81917,0,0,1,317.08138,1203.91285Zm16.78019-12.31577a5.66865,5.66865,0,0,1,2.58964.56424,4.05739,4.05739,0,0,1,1.74966,1.71518,5.96708,5.96708,0,0,1,.63317,2.89986v7.02109H337.1994v-6.86a3.9779,3.9779,0,0,0-.955-2.88862,3.57852,3.57852,0,0,0-2.6818-.9786,4.6375,4.6375,0,0,0-2.24458.51852,3.55016,3.55016,0,0,0-1.47316,1.49564,4.98816,4.98816,0,0,0-.51778,2.3596v6.35345h-1.63426v-12.085h1.565v3.315l-.25289-.62193a4.39675,4.39675,0,0,1,1.84144-2.05987A5.82479,5.82479,0,0,1,333.86157,1191.59708Zm16.09045,11.74029a6.41489,6.41489,0,0,1-3.10741-.74856,5.56348,5.56348,0,0,1-2.17527-2.0831,5.87279,5.87279,0,0,1-.79427-3.06171,5.8125,5.8125,0,0,1,.79427-3.04972,5.51315,5.51315,0,0,1,2.17527-2.06062,6.50192,6.50192,0,0,1,3.10741-.73658,6.224,6.224,0,0,1,2.90061.66764,4.99339,4.99339,0,0,1,2.04863,1.9797,7.11666,7.11666,0,0,1,0,6.39916,5.13773,5.13773,0,0,1-2.04863,2.00292A6.04985,6.04985,0,0,1,349.952,1203.33737Zm.29936,5.04066a10.41731,10.41731,0,0,1-3.17673-.48331,6.26192,6.26192,0,0,1-2.463-1.381l.82875-1.24312a6.31135,6.31135,0,0,0,2.10633,1.20865,7.837,7.837,0,0,0,2.65857.44884,4.64919,4.64919,0,0,0,3.38392-1.07078,4.50578,4.50578,0,0,0,1.082-3.32621v-3.01525l.23-2.07186-.1611-2.07186v-3.65966h1.56532v10.61182a6.09619,6.09619,0,0,1-1.53085,4.59256A6.31545,6.31545,0,0,1,350.25138,1208.378Zm-.13825-6.49133a4.87656,4.87656,0,0,0,2.37121-.56349,4.22186,4.22186,0,0,0,1.63426-1.56532,4.42243,4.42243,0,0,0,.59833-2.31389,4.36237,4.36237,0,0,0-.59833-2.3019,4.25133,4.25133,0,0,0-1.63426-1.55334,5.23952,5.23952,0,0,0-4.73044,0,4.14206,4.14206,0,0,0-1.63426,1.55334,4.42712,4.42712,0,0,0-.58709,2.3019,4.4883,4.4883,0,0,0,.58709,2.31389,4.11463,4.11463,0,0,0,1.63426,1.56532A4.8933,4.8933,0,0,0,350.11313,1201.8867Zm17.72471,2.02615a6.71063,6.71063,0,0,1-3.315-.79428,5.76547,5.76547,0,0,1-2.23259-2.18725,6.24389,6.24389,0,0,1-.80589-3.1876,6.40772,6.40772,0,0,1,.77105-3.1771,5.712,5.712,0,0,1,2.11794-2.17526,6.24258,6.24258,0,0,1,6.05411-.02248,5.49088,5.49088,0,0,1,2.0831,2.16327,6.60117,6.60117,0,0,1,.7598,3.21157c0,.07643-.00412.15736-.01161.24128-.00787.08468-.01162.1731-.01162.26451H362.7275v-1.21988h9.64483l-.64442.48331a4.76756,4.76756,0,0,0-.56386-2.33637,4.15505,4.15505,0,0,0-1.53085-1.5998,4.28954,4.28954,0,0,0-2.233-.57547,4.36512,4.36512,0,0,0-2.23259.57547,3.99869,3.99869,0,0,0-1.54247,1.61178,4.95863,4.95863,0,0,0-.55225,2.37084v.25327a4.73507,4.73507,0,0,0,.61,2.42854,4.25672,4.25672,0,0,0,1.70319,1.63426,5.19938,5.19938,0,0,0,2.49785.58671,5.38283,5.38283,0,0,0,2.05987-.39114,4.27429,4.27429,0,0,0,1.64588-1.19666l.92091,1.05878a5.18382,5.18382,0,0,1-2.01417,1.47316A6.81917,6.81917,0,0,1,367.83784,1203.91285Zm16.78019-12.31577a5.66865,5.66865,0,0,1,2.58964.56424,4.05739,4.05739,0,0,1,1.74966,1.71518,5.96708,5.96708,0,0,1,.63317,2.89986v7.02109h-1.63464v-6.86a3.97794,3.97794,0,0,0-.955-2.88862,3.57852,3.57852,0,0,0-2.6818-.9786,4.6375,4.6375,0,0,0-2.24458.51852,3.55016,3.55016,0,0,0-1.47316,1.49564,4.98816,4.98816,0,0,0-.51778,2.3596v6.35345h-1.63426v-12.085h1.565v3.315l-.25289-.62193a4.39675,4.39675,0,0,1,1.84144-2.05987A5.82479,5.82479,0,0,1,384.618,1191.59708Zm17.40251,0a5.66867,5.66867,0,0,1,2.58964.56424,4.05742,4.05742,0,0,1,1.74965,1.71518,5.96708,5.96708,0,0,1,.63317,2.89986v7.02109h-1.63463v-6.86a3.9779,3.9779,0,0,0-.955-2.88862,3.57852,3.57852,0,0,0-2.6818-.9786,4.6375,4.6375,0,0,0-2.24458.51852,3.55008,3.55008,0,0,0-1.47315,1.49564,4.98816,4.98816,0,0,0-.51778,2.3596v6.35345h-1.63426v-17.07992h1.63426v8.30992l-.32221-.62193a4.39677,4.39677,0,0,1,1.84145-2.05987A5.82479,5.82479,0,0,1,402.02054,1191.59708Zm14.64015,12.31577a5.73181,5.73181,0,0,1-2.3596-.44884,3.50991,3.50991,0,0,1-1.53086-1.24312,3.22439,3.22439,0,0,1-.52939-1.83058,3.34842,3.34842,0,0,1,.44884-1.71444,3.161,3.161,0,0,1,1.47316-1.24311,6.66564,6.66564,0,0,1,2.75111-.47207h4.1662v1.21989h-4.12049a3.62418,3.62418,0,0,0-2.42853.62193,2.0999,2.0999,0,0,0,.12663,3.19958,3.61862,3.61862,0,0,0,2.25619.62118,4.36075,4.36075,0,0,0,2.38246-.63317,3.63747,3.63747,0,0,0,1.46154-1.82983l.36829,1.12847a3.838,3.838,0,0,1-1.59979,1.91A5.30839,5.30839,0,0,1,416.66069,1203.91285Zm4.1662-.1154v-2.67056l-.06894-.43685v-4.46593a3.13286,3.13286,0,0,0-.86321-2.37084,3.57412,3.57412,0,0,0-2.56679-.82874,6.38861,6.38861,0,0,0-2.23259.39114,5.7061,5.7061,0,0,0-1.79573,1.03631l-.73658-1.21989a6.53326,6.53326,0,0,1,2.21011-1.20865,8.59719,8.59719,0,0,1,2.71627-.42636,5.19905,5.19905,0,0,1,3.62519,1.16294,4.54288,4.54288,0,0,1,1.27759,3.533v7.5044Zm7.84984,0v-12.085h1.56494v3.29174l-.1611-.57547a3.98135,3.98135,0,0,1,1.70357-2.10633,5.63855,5.63855,0,0,1,2.96954-.72534v1.58855a1.51741,1.51741,0,0,1-.18433-.01124,1.52191,1.52191,0,0,0-.18395-.012,3.88792,3.88792,0,0,0-2.99278,1.16294,4.66772,4.66772,0,0,0-1.08163,3.303v6.16912Zm11.71594-14.75554a1.1575,1.1575,0,0,1-.8516-.34468,1.13174,1.13174,0,0,1-.34506-.82875,1.09393,1.09393,0,0,1,.34506-.8175,1.181,1.181,0,0,1,.8516-.33345,1.20128,1.20128,0,0,1,.852.32221,1.05668,1.05668,0,0,1,.34506.80551,1.17911,1.17911,0,0,1-.33382.852A1.14751,1.14751,0,0,1,440.39267,1189.04191Zm-.82837,14.75554v-12.085h1.63426v12.085Zm11.44019.1154a5.73181,5.73181,0,0,1-2.3596-.44884,3.50982,3.50982,0,0,1-1.53085-1.24312,3.22432,3.22432,0,0,1-.5294-1.83058,3.34852,3.34852,0,0,1,.44884-1.71444,3.16108,3.16108,0,0,1,1.47316-1.24311,6.66569,6.66569,0,0,1,2.75112-.47207h4.1662v1.21989h-4.12049a3.62421,3.62421,0,0,0-2.42854.62193,2.09989,2.09989,0,0,0,.12664,3.19958,3.6186,3.6186,0,0,0,2.25619.62118,4.36074,4.36074,0,0,0,2.38245-.63317,3.63742,3.63742,0,0,0,1.46154-1.82983l.36829,1.12847a3.838,3.838,0,0,1-1.59979,1.91A5.30839,5.30839,0,0,1,451.00449,1203.91285Zm4.1662-.1154v-2.67056l-.06894-.43685v-4.46593a3.13286,3.13286,0,0,0-.86321-2.37084,3.57412,3.57412,0,0,0-2.56679-.82874,6.38856,6.38856,0,0,0-2.23258.39114,5.70627,5.70627,0,0,0-1.79574,1.03631l-.73658-1.21989a6.53326,6.53326,0,0,1,2.21011-1.20865,8.59724,8.59724,0,0,1,2.71627-.42636,5.19908,5.19908,0,0,1,3.6252,1.16294,4.54291,4.54291,0,0,1,1.27758,3.533v7.5044Zm20.53315.1154a6.12244,6.12244,0,0,1-3.09618-.783,5.633,5.633,0,0,1-2.15241-2.17526,7.00205,7.00205,0,0,1,0-6.43364,5.57312,5.57312,0,0,1,2.15241-2.152,6.20053,6.20053,0,0,1,3.09618-.7718,5.64641,5.64641,0,0,1,2.84253.7141,5.19988,5.19988,0,0,1,2.00292,2.0831,6.91155,6.91155,0,0,1,.74782,3.34944,7.00648,7.00648,0,0,1-.73658,3.33746,5.17976,5.17976,0,0,1-1.99093,2.10633A5.6247,5.6247,0,0,1,475.70384,1203.91285Zm.115-1.45068a4.57057,4.57057,0,0,0,2.31314-.58671,4.18672,4.18672,0,0,0,1.6114-1.65749,5.53257,5.53257,0,0,0,0-4.96048,4.21135,4.21135,0,0,0-1.6114-1.64625,4.57057,4.57057,0,0,0-2.31314-.58671,4.463,4.463,0,0,0-2.279.58671,4.31774,4.31774,0,0,0-1.6114,1.64625,5.43977,5.43977,0,0,0,0,4.96048,4.29128,4.29128,0,0,0,1.6114,1.65749A4.463,4.463,0,0,0,475.81886,1202.46217Zm4.55772,1.33528v-3.63718l.1611-2.43977-.23-2.43978v-8.56319h1.63426v17.07992Zm13.09768.1154a6.71063,6.71063,0,0,1-3.315-.79428,5.76547,5.76547,0,0,1-2.23259-2.18725,6.24389,6.24389,0,0,1-.80589-3.1876,6.40772,6.40772,0,0,1,.77105-3.1771,5.712,5.712,0,0,1,2.11794-2.17526,6.24256,6.24256,0,0,1,6.0541-.02248,5.49081,5.49081,0,0,1,2.0831,2.16327,6.60106,6.60106,0,0,1,.75981,3.21157c0,.07643-.00412.15736-.01161.24128-.00787.08468-.01162.1731-.01162.26451H488.36392v-1.21988h9.64483l-.64442.48331a4.76767,4.76767,0,0,0-.56386-2.33637,4.15505,4.15505,0,0,0-1.53085-1.5998,4.28955,4.28955,0,0,0-2.233-.57547,4.36509,4.36509,0,0,0-2.23258.57547,3.99869,3.99869,0,0,0-1.54247,1.61178,4.95863,4.95863,0,0,0-.55225,2.37084v.25327a4.73517,4.73517,0,0,0,.60994,2.42854,4.25681,4.25681,0,0,0,1.7032,1.63426,5.19938,5.19938,0,0,0,2.49785.58671,5.38283,5.38283,0,0,0,2.05987-.39114,4.27418,4.27418,0,0,0,1.64587-1.19666l.92091,1.05878a5.18378,5.18378,0,0,1-2.01416,1.47316A6.81921,6.81921,0,0,1,493.47426,1203.91285Zm23.50194,0a6.45353,6.45353,0,0,1-3.21083-.79428,5.78953,5.78953,0,0,1-2.22134-2.18725,6.73072,6.73072,0,0,1,0-6.38718,5.731,5.731,0,0,1,2.22134-2.164,6.52729,6.52729,0,0,1,3.21083-.783,6.34513,6.34513,0,0,1,2.78558.5987,4.51947,4.51947,0,0,1,1.95647,1.79537l-1.21989.82874a3.83616,3.83616,0,0,0-1.54247-1.35776,4.85351,4.85351,0,0,0-4.3273.14911,4.26884,4.26884,0,0,0-1.63464,1.64625,5.46312,5.46312,0,0,0,0,4.97172,4.25872,4.25872,0,0,0,1.63464,1.64625,4.857,4.857,0,0,0,4.3273.14986,3.89159,3.89159,0,0,0,1.54247-1.33528l1.21989.82874a4.63253,4.63253,0,0,1-1.95647,1.78412A6.24668,6.24668,0,0,1,516.9762,1203.91285Zm9.59874-.1154v-17.07992h1.63426v17.07992Zm8.86217-14.75554a1.15751,1.15751,0,0,1-.8516-.34468,1.13174,1.13174,0,0,1-.34506-.82875,1.09393,1.09393,0,0,1,.34506-.8175,1.181,1.181,0,0,1,.8516-.33345,1.20125,1.20125,0,0,1,.852.32221,1.05668,1.05668,0,0,1,.34506.80551,1.17911,1.17911,0,0,1-.33382.852A1.14748,1.14748,0,0,1,535.43711,1189.04191Zm-.82837,14.75554v-12.085H536.243v12.085Zm23.13365-12.20037a5.52682,5.52682,0,0,1,2.56679.56424,3.956,3.956,0,0,1,1.70319,1.71518,6.15422,6.15422,0,0,1,.60995,2.89986v7.02109h-1.63426v-6.86a4.10361,4.10361,0,0,0-.9093-2.88862,3.33182,3.33182,0,0,0-2.56641-.9786,4.27591,4.27591,0,0,0-2.15241.51852,3.48516,3.48516,0,0,0-1.40422,1.49564,5.17692,5.17692,0,0,0-.49492,2.3596v6.35345h-1.63426v-6.86a4.0728,4.0728,0,0,0-.92054-2.88862,3.37088,3.37088,0,0,0-2.5784-.9786,4.29138,4.29138,0,0,0-2.14079.51852,3.464,3.464,0,0,0-1.41546,1.49564,5.172,5.172,0,0,0-.49493,2.3596v6.35345h-1.63426v-12.085h1.56495v3.26851l-.25289-.57547a4.32006,4.32006,0,0,1,1.78375-2.05987,5.50361,5.50361,0,0,1,2.91184-.74857,5.06158,5.06158,0,0,1,3.01562.88644,4.14589,4.14589,0,0,1,1.61141,2.65858l-.64441-.25327a4.76271,4.76271,0,0,1,1.87591-2.38208A5.64143,5.64143,0,0,1,557.74239,1191.59708Zm14.57121,12.31577a5.73179,5.73179,0,0,1-2.35959-.44884,3.50985,3.50985,0,0,1-1.53086-1.24312,3.22432,3.22432,0,0,1-.52939-1.83058,3.34842,3.34842,0,0,1,.44884-1.71444,3.161,3.161,0,0,1,1.47316-1.24311,6.66564,6.66564,0,0,1,2.75111-.47207h4.1662v1.21989h-4.12049a3.62418,3.62418,0,0,0-2.42853.62193,2.09988,2.09988,0,0,0,.12663,3.19958,3.61862,3.61862,0,0,0,2.25619.62118,4.36071,4.36071,0,0,0,2.38245-.63317,3.63744,3.63744,0,0,0,1.46155-1.82983l.36829,1.12847a3.83794,3.83794,0,0,1-1.5998,1.91A5.30836,5.30836,0,0,1,572.3136,1203.91285Zm4.1662-.1154v-2.67056l-.06893-.43685v-4.46593a3.13283,3.13283,0,0,0-.86322-2.37084,3.57408,3.57408,0,0,0-2.56678-.82874,6.38861,6.38861,0,0,0-2.23259.39114,5.70627,5.70627,0,0,0-1.79574,1.03631l-.73657-1.21989a6.53321,6.53321,0,0,1,2.2101-1.20865,8.5973,8.5973,0,0,1,2.71628-.42636,5.19905,5.19905,0,0,1,3.62519,1.16294,4.54291,4.54291,0,0,1,1.27759,3.533v7.5044Zm5.96119-10.72721v-1.35776h7.48118v1.35776Zm5.709,10.84261a3.20766,3.20766,0,0,1-3.545-3.52254v-11.3484h1.63426v11.257a2.29635,2.29635,0,0,0,.541,1.63426,2.029,2.029,0,0,0,1.55409.57548,2.63594,2.63594,0,0,0,1.79536-.62193l.57548,1.17418a3.0208,3.0208,0,0,1-1.16219.64441A4.75969,4.75969,0,0,1,588.15,1203.91285Zm8.19452-14.87094a1.15665,1.15665,0,0,1-.85122-.34468,1.1321,1.1321,0,0,1-.34544-.82875,1.09428,1.09428,0,0,1,.34544-.8175,1.18011,1.18011,0,0,1,.85122-.33345,1.2,1.2,0,0,1,.852.32221,1.057,1.057,0,0,1,.34544.80551,1.17942,1.17942,0,0,1-.3342.852A1.14748,1.14748,0,0,1,596.34456,1189.04191Zm-.828,14.75554v-12.085h1.63426v12.085Zm6.72062,0v-1.082l8.05665-10.19745.34544.55225h-8.26347v-1.35776h9.553v1.05878l-8.03417,10.22068-.41438-.55225H612.09v1.35776Zm18.323.1154a5.73181,5.73181,0,0,1-2.3596-.44884,3.50982,3.50982,0,0,1-1.53085-1.24312,3.22406,3.22406,0,0,1-.529-1.83058,3.34842,3.34842,0,0,1,.44884-1.71444,3.15733,3.15733,0,0,1,1.47315-1.24311,6.66261,6.66261,0,0,1,2.75075-.47207h4.1662v1.21989h-4.1205a3.62488,3.62488,0,0,0-2.42853.62193,2.0999,2.0999,0,0,0,.12663,3.19958,3.61938,3.61938,0,0,0,2.2562.62118,4.36112,4.36112,0,0,0,2.38282-.63317,3.63875,3.63875,0,0,0,1.46117-1.82983l.36866,1.12847a3.83983,3.83983,0,0,1-1.59979,1.91A5.30971,5.30971,0,0,1,620.56023,1203.91285Zm4.1662-.1154v-2.67056l-.06894-.43685v-4.46593a3.13286,3.13286,0,0,0-.86321-2.37084,3.57374,3.57374,0,0,0-2.56641-.82874,6.39073,6.39073,0,0,0-2.233.39114,5.70426,5.70426,0,0,0-1.79536,1.03631l-.73658-1.21989a6.535,6.535,0,0,1,2.20974-1.20865,8.60058,8.60058,0,0,1,2.71627-.42636,5.19782,5.19782,0,0,1,3.6252,1.16294,4.54291,4.54291,0,0,1,1.27758,3.533v7.5044Zm12.86726.1154a6.45162,6.45162,0,0,1-3.21007-.79428,5.79053,5.79053,0,0,1-2.22172-2.18725,6.73344,6.73344,0,0,1,0-6.38718,5.732,5.732,0,0,1,2.22172-2.164,6.52536,6.52536,0,0,1,3.21007-.783,6.34681,6.34681,0,0,1,2.786.5987,4.52542,4.52542,0,0,1,1.95722,1.79537l-1.22139.82874a3.82548,3.82548,0,0,0-1.54209-1.35776,4.85194,4.85194,0,0,0-4.32656.14911,4.27235,4.27235,0,0,0-1.635,1.64625,5.46621,5.46621,0,0,0,0,4.97172,4.26221,4.26221,0,0,0,1.635,1.64625,4.85545,4.85545,0,0,0,4.32656.14986,3.8805,3.8805,0,0,0,1.54209-1.33528l1.22139.82874a4.6388,4.6388,0,0,1-1.95722,1.78412A6.24833,6.24833,0,0,1,637.59369,1203.91285Zm-.96662,4.94849a3.56939,3.56939,0,0,1-1.93323-.529l.39189-.8752a3.21126,3.21126,0,0,0,.72459.32295,2.73307,2.73307,0,0,0,.79427.11465,1.68487,1.68487,0,0,0,1.058-.28774,1.01291,1.01291,0,0,0,.012-1.55333,1.63179,1.63179,0,0,0-1.07-.29973h-.52976l.55224-2.09434h.9906l-.34618,1.33453a2.17206,2.17206,0,0,1,1.45067.58747,1.75825,1.75825,0,0,1,.50654,1.27758,1.72643,1.72643,0,0,1-.72534,1.46117A3.05642,3.05642,0,0,1,636.62707,1208.86134Zm14.15684-4.94849a5.73187,5.73187,0,0,1-2.3596-.44884,3.50988,3.50988,0,0,1-1.53085-1.24312,3.22406,3.22406,0,0,1-.529-1.83058,3.34118,3.34118,0,0,1,.44884-1.71444,3.15731,3.15731,0,0,1,1.47316-1.24311,6.66256,6.66256,0,0,1,2.75074-.47207h4.1662v1.21989h-4.12049a3.62489,3.62489,0,0,0-2.42854.62193,2.09989,2.09989,0,0,0,.12664,3.19958,3.61935,3.61935,0,0,0,2.25619.62118,4.35855,4.35855,0,0,0,2.38208-.63317,3.63617,3.63617,0,0,0,1.46192-1.82983l.36866,1.12847a3.83756,3.83756,0,0,1-1.60054,1.91A5.30526,5.30526,0,0,1,650.78391,1203.91285Zm4.1662-.1154v-2.67056l-.06893-.43685v-4.46593a3.13283,3.13283,0,0,0-.86322-2.37084,3.57371,3.57371,0,0,0-2.56641-.82874,6.39071,6.39071,0,0,0-2.233.39114,5.70415,5.70415,0,0,0-1.79536,1.03631l-.73658-1.21989a6.535,6.535,0,0,1,2.20973-1.20865,8.60065,8.60065,0,0,1,2.71628-.42636,5.19778,5.19778,0,0,1,3.62519,1.16294,4.54291,4.54291,0,0,1,1.27759,3.533v7.5044Zm-1.72642-14.11038a1.90636,1.90636,0,0,1-.94339-.23079,3.78538,3.78538,0,0,1-.74857-.54025,8.11684,8.11684,0,0,0-.65565-.553,1.10019,1.10019,0,0,0-.66764-.24128,1.01479,1.01479,0,0,0-.84.39114,1.90569,1.90569,0,0,0-.35742,1.082h-.98985a3.01865,3.01865,0,0,1,.6107-1.84182,1.799,1.799,0,0,1,1.46116-.69012,1.90158,1.90158,0,0,1,.95538.24128,4.03567,4.03567,0,0,1,.75981.55224,7.42008,7.42008,0,0,0,.64441.541,1.085,1.085,0,0,0,.6564.23079,1.06218,1.06218,0,0,0,.85123-.37991,1.6629,1.6629,0,0,0,.34543-1.04754h.98985a2.80854,2.80854,0,0,1-.59871,1.79536A1.8329,1.8329,0,0,1,653.22369,1189.68707Zm14.50152,14.22578a6.23371,6.23371,0,0,1-3.14188-.79428,5.83963,5.83963,0,0,1-2.1985-2.18725,6.73352,6.73352,0,0,1,0-6.38718,5.80264,5.80264,0,0,1,2.18726-2.164,6.285,6.285,0,0,1,3.15312-.783,6.39729,6.39729,0,0,1,3.18834.783,5.69109,5.69109,0,0,1,2.18651,2.164,6.81741,6.81741,0,0,1,0,6.38718,5.72817,5.72817,0,0,1-2.19775,2.18725A6.34636,6.34636,0,0,1,667.72521,1203.91285Zm0-1.45068a4.55264,4.55264,0,0,0,2.32513-.58671,4.21164,4.21164,0,0,0,1.59979-1.65749,5.53569,5.53569,0,0,0,0-4.96048,4.23658,4.23658,0,0,0-1.59979-1.64625,4.809,4.809,0,0,0-4.6038,0,4.31689,4.31689,0,0,0-1.611,1.64625,5.43678,5.43678,0,0,0,0,4.96048,4.29045,4.29045,0,0,0,1.611,1.65749A4.46253,4.46253,0,0,0,667.72521,1202.46217Zm24.35429,1.45068a6.70966,6.70966,0,0,1-3.315-.79428,5.76894,5.76894,0,0,1-2.233-2.18725,6.24737,6.24737,0,0,1-.80551-3.1876,6.40772,6.40772,0,0,1,.771-3.1771,5.711,5.711,0,0,1,2.11757-2.17526,6.2433,6.2433,0,0,1,6.05448-.02248,5.49347,5.49347,0,0,1,2.0831,2.16327,6.60106,6.60106,0,0,1,.75981,3.21157c0,.07643-.0045.15736-.012.24128-.0075.08468-.01124.1731-.01124.26451H686.96916v-1.21988h9.64521l-.64442.48331a4.772,4.772,0,0,0-.56423-2.33637,4.15508,4.15508,0,0,0-1.53086-1.5998,4.28954,4.28954,0,0,0-2.233-.57547,4.36844,4.36844,0,0,0-2.233.57547,4.00522,4.00522,0,0,0-1.5421,1.61178,4.963,4.963,0,0,0-.55224,2.37084v.25327a4.73507,4.73507,0,0,0,.60994,2.42854,4.25432,4.25432,0,0,0,1.7032,1.63426,5.19992,5.19992,0,0,0,2.49747.58671,5.38664,5.38664,0,0,0,2.06062-.39114,4.27855,4.27855,0,0,0,1.6455-1.19666l.92091,1.05878a5.18386,5.18386,0,0,1-2.01416,1.47316A6.81926,6.81926,0,0,1,692.0795,1203.91285Zm18.48339-.1154v-12.085h1.56533v3.29174l-.16111-.57547a3.979,3.979,0,0,1,1.7032-2.10633,5.64037,5.64037,0,0,1,2.96954-.72534v1.58855a1.50051,1.50051,0,0,1-.18358-.01124,1.53307,1.53307,0,0,0-.18433-.012,3.889,3.889,0,0,0-2.99277,1.16294,4.66606,4.66606,0,0,0-1.082,3.303v6.16912Zm15.9065.1154a6.70963,6.70963,0,0,1-3.315-.79428,5.76894,5.76894,0,0,1-2.233-2.18725,6.24737,6.24737,0,0,1-.80552-3.1876,6.40772,6.40772,0,0,1,.771-3.1771,5.711,5.711,0,0,1,2.11757-2.17526,6.2433,6.2433,0,0,1,6.05448-.02248,5.49347,5.49347,0,0,1,2.0831,2.16327,6.60117,6.60117,0,0,1,.7598,3.21157c0,.07643-.00449.15736-.012.24128-.00749.08468-.01124.1731-.01124.26451H721.35905v-1.21988h9.6452l-.64441.48331a4.7719,4.7719,0,0,0-.56424-2.33637,4.15505,4.15505,0,0,0-1.53085-1.5998,4.28954,4.28954,0,0,0-2.233-.57547,4.36847,4.36847,0,0,0-2.233.57547,4.00513,4.00513,0,0,0-1.54209,1.61178,4.96291,4.96291,0,0,0-.55225,2.37084v.25327a4.73507,4.73507,0,0,0,.61,2.42854,4.25436,4.25436,0,0,0,1.70319,1.63426,5.2,5.2,0,0,0,2.49748.58671,5.38667,5.38667,0,0,0,2.06062-.39114,4.27862,4.27862,0,0,0,1.6455-1.19666l.92091,1.05878a5.18382,5.18382,0,0,1-2.01417,1.47316A6.81917,6.81917,0,0,1,726.46939,1203.91285Zm8.72429-10.84261v-1.35776h7.48118v1.35776Zm2.164,10.72721v-13.60459a3.34442,3.34442,0,0,1,3.65966-3.59072,4.82859,4.82859,0,0,1,1.33528.18433,2.71661,2.71661,0,0,1,1.082.57547l-.55224,1.21989a2.30384,2.30384,0,0,0-.80552-.44884,3.19189,3.19189,0,0,0-.98984-.14986,2.10175,2.10175,0,0,0-1.58856.57547,2.37035,2.37035,0,0,0-.55224,1.70395v1.84107l.04571.75981v10.934Zm9.36795,0v-12.085H748.291v3.29174l-.16111-.57547a3.979,3.979,0,0,1,1.7032-2.10633,5.64037,5.64037,0,0,1,2.96954-.72534v1.58855a1.50051,1.50051,0,0,1-.18358-.01124,1.5332,1.5332,0,0,0-.18433-.012,3.889,3.889,0,0,0-2.99277,1.16294,4.66606,4.66606,0,0,0-1.082,3.303v6.16912Zm11.71632-14.75554a1.15549,1.15549,0,0,1-.85123-.34468,1.12919,1.12919,0,0,1-.34543-.82875,1.09152,1.09152,0,0,1,.34543-.8175,1.1789,1.1789,0,0,1,.85123-.33345,1.20126,1.20126,0,0,1,.852.32221,1.057,1.057,0,0,1,.34544.80551,1.17942,1.17942,0,0,1-.3342.852A1.14749,1.14749,0,0,1,758.442,1189.04191Zm-.82875,14.75554v-12.085h1.63426v12.085Zm12.8905-.46008a6.41493,6.41493,0,0,1-3.10742-.74856,5.56594,5.56594,0,0,1-2.17526-2.0831,5.8692,5.8692,0,0,1-.79428-3.06171,5.809,5.809,0,0,1,.79428-3.04972,5.51557,5.51557,0,0,1,2.17526-2.06062,6.502,6.502,0,0,1,3.10742-.73658,6.224,6.224,0,0,1,2.9006.66764,4.99106,4.99106,0,0,1,2.04863,1.9797,7.11666,7.11666,0,0,1,0,6.39916,5.13526,5.13526,0,0,1-2.04863,2.00292A6.04981,6.04981,0,0,1,770.50373,1203.33737Zm.29972,5.04066a10.418,10.418,0,0,1-3.1771-.48331,6.26707,6.26707,0,0,1-2.463-1.381l.82874-1.24312a6.31125,6.31125,0,0,0,2.10633,1.20865,7.83856,7.83856,0,0,0,2.65858.44884,4.64916,4.64916,0,0,0,3.38391-1.07078,4.50732,4.50732,0,0,0,1.082-3.32621v-3.01525l.23-2.07186-.1611-2.07186v-3.65966h1.56532v10.61182a6.09619,6.09619,0,0,1-1.53085,4.59256A6.31447,6.31447,0,0,1,770.80345,1208.378Zm-.13862-6.49133a4.87406,4.87406,0,0,0,2.37084-.56349,4.22127,4.22127,0,0,0,1.635-1.56532,4.4258,4.4258,0,0,0,.598-2.31389,4.36568,4.36568,0,0,0-.598-2.3019,4.25074,4.25074,0,0,0-1.635-1.55334,5.23952,5.23952,0,0,0-4.73044,0,4.147,4.147,0,0,0-1.63426,1.55334,4.43047,4.43047,0,0,0-.58671,2.3019,4.49171,4.49171,0,0,0,.58671,2.31389,4.11949,4.11949,0,0,0,1.63426,1.56532A4.89585,4.89585,0,0,0,770.66483,1201.8867Zm17.72508,2.02615a6.70959,6.70959,0,0,1-3.315-.79428,5.769,5.769,0,0,1-2.233-2.18725,6.24737,6.24737,0,0,1-.80551-3.1876,6.40761,6.40761,0,0,1,.771-3.1771,5.711,5.711,0,0,1,2.11756-2.17526,6.2433,6.2433,0,0,1,6.05448-.02248,5.49333,5.49333,0,0,1,2.0831,2.16327,6.60106,6.60106,0,0,1,.75981,3.21157c0,.07643-.0045.15736-.012.24128-.00749.08468-.01124.1731-.01124.26451H783.27958v-1.21988h9.6452l-.64441.48331a4.7719,4.7719,0,0,0-.56424-2.33637,4.15513,4.15513,0,0,0-1.53085-1.5998,4.28958,4.28958,0,0,0-2.233-.57547,4.36846,4.36846,0,0,0-2.233.57547,4.00513,4.00513,0,0,0-1.54209,1.61178,4.96291,4.96291,0,0,0-.55225,2.37084v.25327a4.73517,4.73517,0,0,0,.60994,2.42854,4.25439,4.25439,0,0,0,1.7032,1.63426,5.2,5.2,0,0,0,2.49747.58671,5.38664,5.38664,0,0,0,2.06062-.39114,4.27855,4.27855,0,0,0,1.6455-1.19666l.92091,1.05878a5.18378,5.18378,0,0,1-2.01416,1.47316A6.81926,6.81926,0,0,1,788.38991,1203.91285Zm10.61108-.1154v-12.085h1.56532v3.29174l-.1611-.57547a3.979,3.979,0,0,1,1.70319-2.10633,5.64041,5.64041,0,0,1,2.96955-.72534v1.58855a1.50067,1.50067,0,0,1-.18359-.01124,1.53293,1.53293,0,0,0-.18433-.012,3.889,3.889,0,0,0-2.99277,1.16294,4.66611,4.66611,0,0,0-1.082,3.303v6.16912Zm13.397.1154a5.73184,5.73184,0,0,1-2.3596-.44884,3.50988,3.50988,0,0,1-1.53085-1.24312,3.22406,3.22406,0,0,1-.529-1.83058,3.34108,3.34108,0,0,1,.44884-1.71444,3.15731,3.15731,0,0,1,1.47316-1.24311,6.66253,6.66253,0,0,1,2.75074-.47207h4.1662v1.21989H812.697a3.62489,3.62489,0,0,0-2.42854.62193,2.09989,2.09989,0,0,0,.12664,3.19958,3.61935,3.61935,0,0,0,2.25619.62118,4.35858,4.35858,0,0,0,2.38208-.63317,3.63615,3.63615,0,0,0,1.46191-1.82983l.36867,1.12847a3.83761,3.83761,0,0,1-1.60054,1.91A5.30526,5.30526,0,0,1,812.398,1203.91285Zm4.1662-.1154v-2.67056l-.06894-.43685v-4.46593a3.13282,3.13282,0,0,0-.86321-2.37084,3.57372,3.57372,0,0,0-2.56641-.82874,6.39063,6.39063,0,0,0-2.233.39114,5.70432,5.70432,0,0,0-1.79537,1.03631l-.73657-1.21989a6.53493,6.53493,0,0,1,2.20973-1.20865,8.60063,8.60063,0,0,1,2.71627-.42636,5.1978,5.1978,0,0,1,3.6252,1.16294,4.54291,4.54291,0,0,1,1.27758,3.533v7.5044Zm12.868.1154a6.4525,6.4525,0,0,1-3.21082-.79428,5.79053,5.79053,0,0,1-2.22172-2.18725,6.73344,6.73344,0,0,1,0-6.38718,5.732,5.732,0,0,1,2.22172-2.164,6.52625,6.52625,0,0,1,3.21082-.783,6.34346,6.34346,0,0,1,2.78521.5987,4.5213,4.5213,0,0,1,1.95722,1.79537l-1.22064.82874a3.83519,3.83519,0,0,0-1.54209-1.35776,4.85351,4.85351,0,0,0-4.3273.14911,4.26531,4.26531,0,0,0-1.63426,1.64625,5.46,5.46,0,0,0,0,4.97172,4.2552,4.2552,0,0,0,1.63426,1.64625,4.857,4.857,0,0,0,4.3273.14986A3.89058,3.89058,0,0,0,832.954,1200.69l1.22064.82874a4.63444,4.63444,0,0,1-1.95722,1.78412A6.245,6.245,0,0,1,829.43223,1203.91285Zm-.96661,4.94849a3.72017,3.72017,0,0,1-1.04755-.13788,3.66452,3.66452,0,0,1-.88569-.39114l.39114-.8752a3.22615,3.22615,0,0,0,.72459.32295,2.7368,2.7368,0,0,0,.79428.11465,1.6872,1.6872,0,0,0,1.05878-.28774,1.01291,1.01291,0,0,0,.012-1.55333,1.63266,1.63266,0,0,0-1.07077-.29973h-.529l.55225-2.09434h.98984l-.34543,1.33453a2.17363,2.17363,0,0,1,1.45067.58747,1.75763,1.75763,0,0,1,.50579,1.27758,1.72765,1.72765,0,0,1-.72459,1.46117A3.05789,3.05789,0,0,1,828.46562,1208.86134Zm14.15609-4.94849a5.73181,5.73181,0,0,1-2.3596-.44884,3.50991,3.50991,0,0,1-1.53086-1.24312,3.22413,3.22413,0,0,1-.529-1.83058,3.34108,3.34108,0,0,1,.44884-1.71444,3.15728,3.15728,0,0,1,1.47315-1.24311,6.66256,6.66256,0,0,1,2.75074-.47207h4.1662v1.21989h-4.12049a3.62486,3.62486,0,0,0-2.42853.62193,2.0999,2.0999,0,0,0,.12663,3.19958,3.61937,3.61937,0,0,0,2.25619.62118,4.35855,4.35855,0,0,0,2.38208-.63317,3.63617,3.63617,0,0,0,1.46192-1.82983l.36866,1.12847a3.83756,3.83756,0,0,1-1.60054,1.91A5.30523,5.30523,0,0,1,842.62171,1203.91285Zm4.1662-.1154v-2.67056l-.06894-.43685v-4.46593a3.13286,3.13286,0,0,0-.86321-2.37084,3.57374,3.57374,0,0,0-2.56641-.82874,6.39073,6.39073,0,0,0-2.233.39114,5.70426,5.70426,0,0,0-1.79536,1.03631l-.73658-1.21989a6.535,6.535,0,0,1,2.20974-1.20865,8.60058,8.60058,0,0,1,2.71627-.42636,5.19778,5.19778,0,0,1,3.62519,1.16294,4.54288,4.54288,0,0,1,1.27759,3.533v7.5044Zm-1.72643-14.11038a1.90636,1.90636,0,0,1-.94339-.23079,3.78538,3.78538,0,0,1-.74857-.54025,8.11339,8.11339,0,0,0-.65565-.553,1.10017,1.10017,0,0,0-.66764-.24128,1.01476,1.01476,0,0,0-.84.39114,1.90569,1.90569,0,0,0-.35743,1.082H839.859a3.01871,3.01871,0,0,1,.6107-1.84182,1.799,1.799,0,0,1,1.46117-.69012,1.90157,1.90157,0,0,1,.95537.24128,4.03567,4.03567,0,0,1,.75981.55224,7.42008,7.42008,0,0,0,.64441.541,1.085,1.085,0,0,0,.6564.23079,1.06218,1.06218,0,0,0,.85123-.37991,1.6629,1.6629,0,0,0,.34543-1.04754h.98985a2.80853,2.80853,0,0,1-.5987,1.79536A1.83292,1.83292,0,0,1,845.06148,1189.68707Zm14.50152,14.22578a6.23371,6.23371,0,0,1-3.14188-.79428,5.83971,5.83971,0,0,1-2.1985-2.18725,6.73352,6.73352,0,0,1,0-6.38718,5.80264,5.80264,0,0,1,2.18726-2.164,6.285,6.285,0,0,1,3.15312-.783,6.39736,6.39736,0,0,1,3.18835.783,5.69107,5.69107,0,0,1,2.1865,2.164,6.81741,6.81741,0,0,1,0,6.38718,5.72814,5.72814,0,0,1-2.19774,2.18725A6.3464,6.3464,0,0,1,859.563,1203.91285Zm0-1.45068a4.55261,4.55261,0,0,0,2.32513-.58671,4.21164,4.21164,0,0,0,1.59979-1.65749,5.53569,5.53569,0,0,0,0-4.96048,4.23658,4.23658,0,0,0-1.59979-1.64625,4.809,4.809,0,0,0-4.6038,0,4.31689,4.31689,0,0,0-1.611,1.64625,5.43678,5.43678,0,0,0,0,4.96048,4.29045,4.29045,0,0,0,1.611,1.65749A4.46255,4.46255,0,0,0,859.563,1202.46217Z" transform="translate(-66.4427 -1076.7033)"/><g id="name"><path class="cls-2" d="M346.03737,1120.48282a12.43173,12.43173,0,0,0-10.402-5.43979c-6.68034,0-8.77964,4.19859-8.77964,7.44331a5.36315,5.36315,0,0,0,2.00417,4.295c1.52658,1.43146,3.62652,2.19443,7.63421,3.62588,4.96285,1.71814,9.639,3.43562,12.88375,6.39431,2.86291,2.57623,5.43914,6.8706,5.43914,13.36,0,12.40551-8.97054,20.89976-22.13967,20.89976-11.73833,0-18.60957-7.15727-21.94942-12.025l8.1118-7.72934a14.925,14.925,0,0,0,13.36,8.493c5.6307,0,9.82994-3.435,9.82994-8.779a7.39425,7.39425,0,0,0-2.48111-5.72647c-2.386-2.19443-6.2034-3.435-9.82993-4.67553-3.33985-1.14542-7.34818-2.67265-10.5929-5.53556-2.09929-1.81327-5.058-5.344-5.058-11.83346,0-9.35234,6.29853-18.70469,20.42283-18.70469a24.4797,24.4797,0,0,1,18.03621,7.44395Z" transform="translate(-66.4427 -1076.7033)"/><path class="cls-2" d="M373.32692,1105.97671h8.97054l16.89143,40.46321,17.655-40.46321h8.97054l10.688,63.65318H423.90544l-5.72582-39.22266-17.08234,39.22266h-4.19859l-16.31937-39.22266-6.48879,39.22266H361.49347Z" transform="translate(-66.4427 -1076.7033)"/><path class="cls-3" d="M469.129,1169.62989v-63.65318h22.14032v19.75435a56.47813,56.47813,0,0,1-.47693,8.01667h.47693a43.21259,43.21259,0,0,1,3.3405-7.15728l10.97406-20.61374h25.00323l-19.84948,31.20664,21.94942,32.44654H505.96563l-11.64254-20.42219a60.85725,60.85725,0,0,1-3.05382-6.10763h-.47693a32.55724,32.55724,0,0,1,.47693,6.01186v20.518Z" transform="translate(-66.4427 -1076.7033)"/><path class="cls-2" d="M553.00629,1105.97671v52.96515h19.65986v10.688H540.60077v-63.65318Z" transform="translate(-66.4427 -1076.7033)"/><path class="cls-2" d="M593.65652,1105.97671v63.65318H581.251v-63.65318Z" transform="translate(-66.4427 -1076.7033)"/><path class="cls-2" d="M616.74877,1105.97671h8.97054l16.89143,40.46321,17.65505-40.46321h8.97054l10.688,63.65318H667.32729l-5.72582-39.22266-17.08169,39.22266H640.3199l-16.31808-39.22266-6.48944,39.22266H604.91532Z" transform="translate(-66.4427 -1076.7033)"/><path class="cls-2" d="M728.87341,1156.26921H703.20169l-5.63,13.36068H684.11519l27.3892-63.65318h9.73416l26.62559,63.65318H734.50345Zm-3.62653-10.11532-9.06632-22.90394-9.06631,22.90394Z" transform="translate(-66.4427 -1076.7033)"/><path class="cls-2" d="M772.09922,1116.66539v52.9645H759.6937v-52.9645H745.37786v-10.68868h41.03592v10.68868Z" transform="translate(-66.4427 -1076.7033)"/><path class="cls-2" d="M806.63923,1105.97671v63.65318H794.23372v-63.65318Z" transform="translate(-66.4427 -1076.7033)"/><path class="cls-2" d="M836.604,1158.94186h29.39273v10.688H815.99029l30.92-52.9645H820.858v-10.68868h46.666Z" transform="translate(-66.4427 -1076.7033)"/><path class="cls-2" d="M914.56657,1156.26921H888.89486l-5.63,13.36068H869.80835l27.38921-63.65318h9.73415l26.62559,63.65318H920.19662Zm-3.62652-10.11532-9.06632-22.90394-9.06632,22.90394Z" transform="translate(-66.4427 -1076.7033)"/></g><g id="symbol"><path class="cls-4" d="M92.99285,1175.53966c-1.85712-7.08414-1.78869-14.07478-1.78869-18.8365A80.09041,80.09041,0,0,1,171.204,1076.7033c17.59722,0,43.116,6.44988,58.45341,27.3368a126.45278,126.45278,0,0,1-17.13652-1.94112,67.85779,67.85779,0,0,0-41.31689-13.86575,68.54763,68.54763,0,0,0-68.46993,68.46993l.19093,4.28059S95.998,1168.21526,92.99285,1175.53966Zm155.1568,5.22515c-3.66,1.55176-8.71887,2.61988-14.33007,3.497-11.05759,24.505-35.73979,40.91158-62.61556,40.91158-24.67506,0-47.09326-12.58057-59.23037-34.09672a34.53592,34.53592,0,0,0-10.20342,5.61466c14.17793,25.13389,40.605,40.012,69.43379,40.012C202.60337,1236.7033,233.02137,1218.31941,248.14965,1180.76481Z" transform="translate(-66.4427 -1076.7033)"/><path class="cls-5" d="M274.84574,1132.21089s18.14971,61.872-91.69183,44.97918c-77.74876-12.166-116.71121,43.95068-116.71121,43.95068s18.01153-45.56056,69.53751-60.37539a109.96863,109.96863,0,0,1,44.67832-3.20207C275.0508,1169.95008,274.84574,1132.21089,274.84574,1132.21089Zm-80.85119-2.76919a88.41784,88.41784,0,0,0-36.00909.63612c-42.00967,9.663-58.4433,45.46184-58.4433,45.46184s33.71139-43.36665,95.60594-30.23235c87.45586,18.319,75.56341-32.14149,75.56341-32.14149S269.24194,1143.474,193.99455,1129.4417Zm6.65763-23.415a77.2307,77.2307,0,0,0-31.45611.342c-36.7509,8.191-51.31731,39.36218-51.31731,39.36218s29.70266-37.67885,83.68687-25.83945c76.28013,16.51966,66.192-27.62589,66.192-27.62589S266.29417,1118.72971,200.65218,1106.02675Z" transform="translate(-66.4427 -1076.7033)"/></g></g></svg>